<svg width="50" height="43" viewBox="0 0 50 43" fill="none" xmlns="http://www.w3.org/2000/svg">
<path d="M24.9551 11.0156C24.9552 11.0909 24.9596 11.1716 24.9699 11.2606C24.999 11.5124 25.0768 11.8311 25.2811 12.1087C25.4854 12.3864 25.8161 12.6229 26.4093 12.8852C27.0026 13.1473 27.8586 13.4352 28.7727 13.5997C29.687 13.7643 30.6596 13.8054 31.4815 13.79C32.3034 13.7745 32.9744 13.7025 33.626 13.5431C34.2776 13.3838 34.9099 13.137 35.3963 12.8594C35.8824 12.5818 36.2229 12.2733 36.4126 12.0573C36.6022 11.8414 36.641 11.7181 36.6557 11.5947C36.6702 11.4712 36.6605 11.3479 36.6507 11.2245" stroke="white" stroke-width="0.3501"/>
<path d="M24.9709 11.2628C24.8866 12.0939 24.8022 12.925 24.7262 13.7467C24.6499 14.5686 24.5818 15.3809 24.4263 15.9721C24.2706 16.5633 24.0275 16.9334 23.4051 17.319C22.7826 17.7047 21.7807 18.1056 20.4191 18.5169C19.0574 18.9282 17.336 19.3498 16.2369 19.6068C15.1378 19.8639 14.6613 19.9565 14.3355 20.0079C14.0096 20.0593 13.8347 20.0696 13.4554 20.1621C13.076 20.2546 12.4925 20.4294 12.05 20.635C11.6073 20.8408 11.306 21.0773 11.0093 21.3497C10.7126 21.6223 10.4209 21.9307 10.236 22.2751C10.0512 22.6197 9.9735 23 9.9346 23.4267C9.89561 23.8535 9.89561 24.3265 10.0026 24.6811C10.1095 25.0359 10.3236 25.2724 10.6883 25.5706C11.053 25.8689 11.5684 26.2287 12.0548 26.5063C12.541 26.784 12.9981 26.9793 13.4019 27.1232C13.8055 27.2672 14.1556 27.3598 14.8657 27.3135C15.5756 27.2672 16.6454 27.0822 18.1919 26.7787C19.7383 26.4754 21.7613 26.0539 23.1716 25.7968C24.5818 25.5397 25.3793 25.4472 26.1137 25.4112C26.848 25.3753 27.5191 25.3958 28.0638 25.4369C28.6085 25.4781 29.0266 25.5397 29.4643 25.6631C29.902 25.7866 30.3591 25.9716 31.9444 26.7686C32.2061 26.9 32.4986 27.0483 32.8129 27.2082M41.632 31.4978C41.7449 31.5441 41.8546 31.5887 41.9622 31.632C42.8666 31.997 43.6254 32.285 44.1992 32.4392C44.773 32.5935 45.1621 32.614 45.624 32.5832C46.0861 32.5523 46.6209 32.4701 47.117 32.3209C47.6131 32.1718 48.0702 31.956 48.3863 31.7452C48.7023 31.5343 48.8774 31.3288 48.9552 30.9843C49.0329 30.6398 49.0135 30.1566 48.8676 29.6116C48.7217 29.0665 48.4495 28.46 47.7541 27.6888C47.0587 26.9176 45.9401 25.982 44.8605 25.108C44.3762 24.7158 43.8998 24.3362 43.4575 23.9903M43.392 17.7778C43.8912 17.4754 44.3726 17.1239 44.7342 16.7586C45.1718 16.3166 45.4344 15.8538 45.5899 15.3602C45.7456 14.8667 45.7942 14.3424 45.7311 13.9361C45.6678 13.53 45.4927 13.2421 44.9384 12.8308C44.384 12.4195 43.4503 11.8848 42.8618 11.5764C42.2734 11.2679 42.0303 11.1857 41.7482 11.1547C41.4662 11.124 41.1452 11.1445 40.8632 11.2062C40.5812 11.2679 40.338 11.3707 40.1045 11.5044C39.8711 11.6381 39.6474 11.8025 39.4675 11.9721C39.2876 12.1419 39.1515 12.3166 39.0201 12.4606C38.8888 12.6045 38.7623 12.7177 38.5047 12.8616C38.2469 13.0056 37.8579 13.1804 37.532 13.2986C37.2063 13.4169 36.9436 13.4786 36.6809 13.5403" stroke="white" stroke-width="0.3501"/>
<path d="M26.4391 18.6289C26.0207 18.958 25.6025 19.2869 24.7953 19.6107C23.988 19.9347 22.7918 20.2535 21.3621 20.6133C19.9323 20.9732 18.2693 21.3741 17.0534 21.693C15.8377 22.0117 15.0693 22.2483 14.5295 22.4848C13.9897 22.7213 13.6785 22.9577 13.45 23.2457C13.2214 23.5336 13.0755 23.8729 12.983 24.315C12.8906 24.7571 12.8518 25.3021 12.9052 25.7134C12.9587 26.1247 13.1047 26.4023 13.2857 26.639C13.4668 26.8757 13.6828 27.0714 13.9519 27.1768C14.221 27.2822 14.5431 27.2973 14.8652 27.3124" stroke="white" stroke-width="0.3501"/>
<path d="M45.3474 32.594C45.4542 31.5173 45.5609 30.4405 45.3858 29.6554C45.2105 28.8702 44.7535 28.3767 43.3725 27.4307C43.158 27.284 42.9216 27.1261 42.6683 26.9603M34.5116 21.5527C34.3611 21.4373 34.2188 21.3266 34.0841 21.2201C33.199 20.5211 32.635 20.0069 32.2264 19.5596C31.8179 19.1123 31.565 18.7319 31.3949 18.0018C31.2246 17.2718 31.1371 16.1921 31.0982 15.4929C31.0594 14.7937 31.069 14.4751 31.0788 14.1562" stroke="white" stroke-width="0.3501"/>
<path d="M44.938 12.8276C44.2571 12.9715 43.5764 13.1154 42.8616 13.352C42.1466 13.5885 41.3978 13.9175 40.7607 14.2003C40.1236 14.4831 39.5985 14.7195 38.9711 14.8995C38.3438 15.0794 37.6144 15.2028 37.2108 15.1566C36.8071 15.1103 36.7292 14.8943 36.6758 14.5191C36.6222 14.1437 36.5931 13.6091 36.594 13.0949C36.5948 12.5808 36.6255 12.0873 36.6564 11.5938" stroke="white" stroke-width="0.3501"/>
<path d="M42.1243 31.6953C42.1289 32.2546 42.1334 32.8138 42.1698 33.1242C42.2061 33.4348 42.2742 33.4964 42.4591 33.594C42.6438 33.6918 42.9452 33.8255 43.2127 33.918C43.4803 34.0105 43.7136 34.062 43.9811 34.0979C44.2485 34.134 44.5501 34.1545 44.8954 34.1545C45.2407 34.1545 45.6297 34.134 46.0284 34.067C46.4272 34.0003 46.8356 33.8871 47.1761 33.7227C47.5165 33.5581 47.7888 33.3422 47.9542 33.188C48.1195 33.0338 48.1779 32.9412 48.1918 32.7352C48.2057 32.5292 48.175 32.2099 48.1446 31.8905" stroke="white" stroke-width="0.3501"/>
<path d="M44.1531 34.1179C44.1476 33.9567 44.1418 33.7957 44.1512 33.7203C44.1606 33.6449 44.1849 33.6551 44.4329 33.6526C44.6809 33.6501 45.1526 33.6346 45.5246 33.6166C45.8966 33.5986 46.169 33.5781 46.3051 33.5781C46.4412 33.5781 46.4412 33.5986 46.4412 33.6423C46.4412 33.6861 46.4412 33.7529 46.4404 33.8133C46.4394 33.8737 46.4379 33.9277 46.4361 33.9818" stroke="white" stroke-width="0.3501"/>
<path d="M35.8822 29.4453C35.8605 29.6267 35.8414 29.8035 35.8269 29.9713C35.796 30.3304 35.786 30.6491 35.825 30.9318C35.8639 31.2146 35.9514 31.4614 36.0561 31.6542C36.1606 31.8469 36.2822 31.9858 36.4522 32.1142C36.6225 32.2429 36.8414 32.3611 37.2133 32.4664C37.5854 32.5719 38.1106 32.6644 38.5727 32.6901C39.0347 32.7159 39.4333 32.6748 39.7981 32.5976C40.1628 32.5205 40.4934 32.4074 40.7292 32.2789C40.9651 32.1503 41.1062 32.0064 41.184 31.8727C41.2618 31.739 41.2763 31.6156 41.291 31.4922" stroke="white" stroke-width="0.3501"/>
<path d="M38.2217 30.6914C38.2259 30.8751 38.2282 31.0506 38.2264 31.2088C38.2229 31.522 38.2032 31.7688 38.1717 31.9641C38.14 32.1595 38.0962 32.3034 38.0471 32.4027C37.9977 32.5022 37.9429 32.5571 37.8882 32.6117" stroke="white" stroke-width="0.3501"/>
<path d="M38.353 30.7227C38.3356 30.8364 38.3181 30.9506 38.3009 31.0657C38.2568 31.3611 38.2137 31.6626 38.2819 31.894C38.35 32.1254 38.5291 32.2864 38.6985 32.4064C38.868 32.5264 39.0279 32.6052 39.2209 32.6275C39.4138 32.6499 39.6398 32.6158 39.8967 32.5481C40.1535 32.4804 40.4412 32.3791 40.6607 32.2608C40.8804 32.1425 41.0319 32.0071 41.0938 31.863C41.1559 31.7192 41.1283 31.5666 41.1007 31.4142" stroke="white" stroke-width="0.3501"/>
<path d="M36.8415 32.4781C36.8318 33.3985 36.8221 34.3186 36.827 34.8019C36.8318 35.2851 36.8514 35.3315 36.9559 35.406C37.0604 35.4805 37.2501 35.5834 37.4786 35.6554C37.7072 35.7273 37.9747 35.7685 38.2981 35.7761C38.6215 35.7839 39.0008 35.7581 39.2658 35.699C39.5308 35.6399 39.6817 35.5474 39.8371 35.4446C39.9928 35.3418 40.1533 35.2286 40.2505 35.131C40.3479 35.0332 40.3818 34.951 40.4044 34.4994C40.427 34.048 40.4381 33.227 40.4491 32.4062" stroke="white" stroke-width="0.3501"/>
<path d="M37.0078 35.5792C36.9787 35.5971 36.8955 35.7195 36.8566 35.9117C36.8173 36.104 36.8221 36.3663 36.8466 36.5154C36.8708 36.6645 36.9146 36.7005 37.007 36.7544C37.0993 36.8084 37.2405 36.8804 37.3912 36.9317C37.5418 36.9832 37.7025 37.0141 37.8703 37.0346C38.038 37.0552 38.2131 37.0654 38.4148 37.0552C38.6166 37.0448 38.8452 37.0141 39.0179 36.978C39.1904 36.942 39.3072 36.901 39.4434 36.8469C39.5796 36.793 39.7352 36.7262 39.847 36.6542C39.9588 36.5822 40.0269 36.505 40.0951 36.4202C40.1631 36.3355 40.2311 36.2429 40.2652 36.0886C40.2992 35.9344 40.2992 35.7185 40.2944 35.6181C40.2895 35.5179 40.2798 35.5334 40.2215 35.6029C40.1631 35.6722 40.0562 35.7956 39.9248 35.9112C39.7936 36.0269 39.6379 36.135 39.4628 36.2146C39.2877 36.2943 39.0933 36.3457 38.8526 36.3713C38.6119 36.3971 38.3249 36.3971 38.0867 36.379C37.8483 36.361 37.6586 36.3252 37.503 36.2814C37.3475 36.2376 37.2258 36.1863 37.1408 36.14C37.0556 36.0938 37.007 36.0527 36.9876 35.9858C36.9682 35.919 36.9779 35.8264 36.995 35.7369C37.0123 35.6475 37.037 35.5612 37.0078 35.5792Z" stroke="white" stroke-width="0.3501"/>
<path d="M36.9353 36.8135C36.9061 36.8315 36.8229 36.9539 36.784 37.1461C36.7448 37.3384 36.7497 37.6006 36.774 37.7497C36.7982 37.8988 36.8421 37.9348 36.9344 37.9888C37.0269 38.0428 37.1679 38.1147 37.3186 38.1662C37.4694 38.2175 37.6299 38.2484 37.7977 38.2689C37.9655 38.2895 38.1405 38.2998 38.3423 38.2895C38.5441 38.2792 38.7727 38.2484 38.9453 38.2123C39.118 38.1764 39.2348 38.1353 39.3709 38.0814C39.5069 38.0273 39.6626 37.9605 39.7745 37.8885C39.8862 37.8166 39.9545 37.7395 40.0225 37.6546C40.0906 37.5698 40.1587 37.4772 40.1927 37.323C40.2266 37.1688 40.2266 36.9529 40.2219 36.8526C40.217 36.7523 40.2072 36.7678 40.1489 36.8372C40.0906 36.9065 39.9836 37.0299 39.8523 37.1456C39.721 37.2613 39.5653 37.3693 39.3903 37.449C39.2152 37.5287 39.0207 37.5801 38.78 37.6058C38.5393 37.6314 38.2523 37.6314 38.0141 37.6134C37.7757 37.5955 37.5862 37.5596 37.4305 37.5157C37.2749 37.4721 37.1532 37.4206 37.0683 37.3743C36.9832 37.3282 36.9344 37.2871 36.915 37.2201C36.8955 37.1534 36.9054 37.0608 36.9225 36.9713C36.9397 36.8819 36.9644 36.7955 36.9353 36.8135Z" stroke="white" stroke-width="0.3501"/>
<path d="M36.8634 38.048C36.8343 38.0659 36.7512 38.1883 36.7122 38.3805C36.673 38.5727 36.6779 38.8351 36.7023 38.984C36.7265 39.1332 36.7703 39.1692 36.8627 39.2232C36.9552 39.2771 37.0961 39.3491 37.2468 39.4005C37.3976 39.4519 37.5582 39.4828 37.726 39.5034C37.8936 39.5239 38.0687 39.5342 38.2705 39.5239C38.4723 39.5136 38.7009 39.4828 38.8735 39.4467C39.0462 39.4107 39.1629 39.3697 39.2991 39.3157C39.4352 39.2618 39.5909 39.1949 39.7027 39.1229C39.8145 39.0509 39.8827 38.9738 39.9508 38.8889C40.0188 38.8041 40.0869 38.7116 40.1209 38.5575C40.155 38.4031 40.155 38.1873 40.1501 38.087C40.1452 37.9867 40.1355 38.0021 40.0771 38.0716C40.0188 38.1409 39.9119 38.2644 39.7805 38.38C39.6492 38.4957 39.4936 38.6037 39.3185 38.6834C39.1434 38.763 38.949 38.8145 38.7083 38.8401C38.4675 38.8658 38.1805 38.8658 37.9424 38.8478C37.704 38.8299 37.5144 38.7939 37.3587 38.7502C37.2032 38.7064 37.0815 38.6551 36.9965 38.6088C36.9113 38.5626 36.8628 38.5215 36.8433 38.4545C36.8238 38.3878 36.8336 38.2952 36.8508 38.2058C36.868 38.1162 36.8928 38.03 36.8634 38.048Z" stroke="white" stroke-width="0.3501"/>
<path d="M36.7919 39.2862C36.7627 39.3042 36.6796 39.4265 36.6406 39.6188C36.6015 39.8111 36.6063 40.0733 36.6306 40.2224C36.655 40.3715 36.6988 40.4074 36.7912 40.4615C36.8835 40.5154 37.0245 40.5873 37.1754 40.6388C37.326 40.6902 37.4866 40.721 37.6544 40.7416C37.8221 40.7621 37.9971 40.7724 38.199 40.7621C38.4008 40.7519 38.6294 40.721 38.802 40.685C38.9746 40.6491 39.0914 40.608 39.2276 40.554C39.3637 40.5 39.5193 40.4332 39.6312 40.3612C39.7429 40.2893 39.8111 40.2121 39.8792 40.1273C39.9473 40.0424 40.0154 39.9499 40.0494 39.7957C40.0834 39.6414 40.0834 39.4256 40.0785 39.3253C40.0737 39.225 40.064 39.2404 40.0056 39.3099C39.9473 39.3792 39.8403 39.5026 39.7089 39.6182C39.5776 39.7339 39.422 39.842 39.247 39.9216C39.0719 40.0013 38.8774 40.0527 38.6367 40.0784C38.3959 40.1041 38.109 40.1041 37.8708 40.0861C37.6324 40.0682 37.4429 40.0322 37.2872 39.9885C37.1316 39.9447 37.0099 39.8934 36.9249 39.847C36.8398 39.8008 36.7912 39.7597 36.7718 39.6928C36.7522 39.626 36.762 39.5334 36.7791 39.444C36.7964 39.3545 36.8212 39.2682 36.7919 39.2862Z" stroke="white" stroke-width="0.3501"/>
<path d="M36.7191 40.5205C36.69 40.5385 36.6069 40.6608 36.5679 40.8531C36.5288 41.0454 36.5336 41.3076 36.5579 41.4567C36.5822 41.6059 36.626 41.6419 36.7184 41.6958C36.8108 41.7499 36.9519 41.8217 37.1026 41.8732C37.2533 41.9246 37.4138 41.9554 37.5816 41.976C37.7494 41.9965 37.9244 42.0069 38.1262 41.9965C38.328 41.9863 38.5566 41.9554 38.7293 41.9194C38.902 41.8834 39.0186 41.8424 39.1548 41.7884C39.2909 41.7344 39.4466 41.6675 39.5584 41.5957C39.6702 41.5236 39.7383 41.4464 39.8065 41.3616C39.8745 41.2768 39.9426 41.1843 39.9766 41.03C40.0107 40.8758 40.0107 40.6599 40.0058 40.5596C40.0009 40.4593 39.9913 40.4748 39.9328 40.5442C39.8745 40.6137 39.7675 40.7371 39.6362 40.8527C39.5049 40.9684 39.3493 41.0763 39.1743 41.156C38.9991 41.2357 38.8047 41.2871 38.564 41.3127C38.3233 41.3386 38.0362 41.3386 37.798 41.3205C37.5597 41.3025 37.3699 41.2665 37.2145 41.2229C37.0588 41.1791 36.9372 41.1278 36.8521 41.0815C36.7671 41.0352 36.7184 40.9941 36.699 40.9272C36.6795 40.8604 36.6893 40.7678 36.7064 40.6784C36.7237 40.5889 36.7485 40.5026 36.7191 40.5205Z" stroke="white" stroke-width="0.3501"/>
<path d="M14.6776 19.9465C14.6542 19.8106 14.6308 19.6744 14.308 19.4213C13.9851 19.1682 13.3627 18.7981 12.7985 18.5719C12.2344 18.3456 11.7286 18.2634 11.3153 18.2223C10.902 18.1811 10.581 18.1811 10.3476 18.2223C10.114 18.2634 9.96826 18.3456 9.66676 18.6181C9.36517 18.8907 8.90813 19.3533 8.58226 19.7853C8.25648 20.2171 8.06186 20.618 7.92095 21.0036C7.77977 21.3893 7.6923 21.7594 7.65339 22.1449C7.61449 22.5306 7.62423 22.9316 7.66801 23.3121C7.71179 23.6925 7.78969 24.0523 7.8675 24.3197C7.94523 24.5871 8.02296 24.7619 8.29538 24.9829C8.56773 25.204 9.03451 25.4712 9.36526 25.6512C9.69592 25.8312 9.89045 25.9237 10.1189 26.0111C10.3476 26.0985 10.6102 26.1808 10.8976 26.238C11.1847 26.2953 11.4968 26.3275 11.8087 26.3598" stroke="white" stroke-width="0.3501"/>
<path d="M14.5464 19.6442C13.779 19.4338 13.0117 19.2236 12.555 19.139C12.0983 19.0544 11.9524 19.0955 11.7967 19.2035C11.6412 19.3115 11.4758 19.4862 11.077 19.9438C10.6783 20.4013 10.0461 21.1418 9.71542 21.5838C9.38467 22.026 9.35551 22.17 9.34098 22.242C9.32644 22.314 9.32644 22.314 9.39485 22.9023C9.46317 23.4905 9.59972 24.6674 9.66813 25.2556C9.73654 25.844 9.73654 25.844 9.93004 25.9095C10.1235 25.9752 10.5106 26.1062 10.7041 26.1718C10.8976 26.2373 10.8976 26.2373 10.9225 26.2418C10.9476 26.2465 10.9975 26.2556 11.0475 26.2648" stroke="white" stroke-width="0.3501"/>
<path d="M10.3479 18.2227C10.9024 18.518 11.4568 18.8131 12.0112 19.1084" stroke="white" stroke-width="0.3501"/>
<path d="M7.80872 21.3477C8.31971 21.6456 8.83079 21.9437 9.3417 22.2417" stroke="white" stroke-width="0.3501"/>
<path d="M8.02478 24.6914C8.5958 25.0753 9.16665 25.4593 9.73758 25.8432" stroke="white" stroke-width="0.3501"/>
<path d="M15.146 19.8516C15.1417 19.0787 15.1374 18.306 15.0818 17.6471C15.0263 16.9883 14.9193 16.4433 14.7541 15.9188C14.5886 15.3944 14.3649 14.8906 14.0295 14.4279C13.6939 13.9652 13.2464 13.5437 12.8525 13.2095C12.4586 12.8754 12.1182 12.6285 11.6466 12.4229C11.1748 12.2172 10.5718 12.0528 10.0466 11.9705C9.52128 11.8882 9.07399 11.8882 8.63628 11.9294C8.19865 11.9705 7.77068 12.0528 7.40599 12.1504C7.04113 12.2481 6.73971 12.3612 6.37502 12.5822C6.01025 12.8033 5.58237 13.1324 5.12037 13.5179C4.65837 13.9036 4.16243 14.3456 3.7248 14.8392C3.287 15.3328 2.90769 15.8777 2.55753 16.4793C2.20738 17.0808 1.88647 17.7388 1.64337 18.4175C1.40019 19.0961 1.23482 19.7953 1.12785 20.5151C1.02088 21.2349 0.972221 21.9752 1.01609 22.659C1.05978 23.3427 1.19591 23.9699 1.52657 24.6434C1.85723 25.3169 2.38259 26.0367 2.97575 26.5971C3.569 27.1575 4.23041 27.5585 4.77996 27.8052C5.32944 28.052 5.76706 28.1447 6.17562 28.2012C6.58418 28.2577 6.9634 28.2783 7.37675 28.2423C7.79026 28.2063 8.23755 28.1137 8.69955 27.9698C9.16163 27.8258 9.63808 27.6305 10.0515 27.43C10.4648 27.2295 10.8148 27.0238 11.0541 26.84C11.2933 26.6562 11.4215 26.4942 11.5499 26.3322" stroke="white" stroke-width="0.3501"/>
<path d="M3.83194 27.28C3.44826 26.664 3.06476 26.0481 2.76608 25.2825C2.46724 24.517 2.25321 23.6018 2.2143 22.5684C2.1754 21.5351 2.31161 20.3835 2.67151 19.237C3.03133 18.0905 3.61492 16.9492 4.14498 16.1575C4.67513 15.3657 5.15166 14.9236 5.70601 14.4659C6.26036 14.0084 6.8926 13.5356 7.48098 13.2167C8.06936 12.8979 8.61413 12.7335 9.17822 12.6563C9.74223 12.5791 10.3259 12.5894 10.8456 12.6229C11.3655 12.6564 11.8214 12.7129 12.2827 12.9459C12.7436 13.1789 13.2097 13.5883 13.6757 13.9975" stroke="white" stroke-width="0.3501"/>
<path d="M36.6626 11.412C37.2011 10.7691 37.7397 10.1262 38.1499 9.74827C38.5602 9.37032 38.8422 9.25714 39.3382 9.30857C39.8343 9.36001 40.5443 9.57588 41.0307 9.74556C41.517 9.91524 41.7794 10.0385 42.042 10.2032C42.3047 10.3677 42.5672 10.5733 42.7277 10.7429C42.8882 10.9126 42.9466 11.0463 42.9944 11.2021C43.0424 11.3578 43.0799 11.5355 43.1173 11.7134" stroke="white" stroke-width="0.3501"/>
<path d="M36.6802 13.5409C37.1959 13.3621 37.7115 13.1836 38.1249 13.0253C38.5383 12.8671 38.8495 12.7294 39.0805 12.5859C39.3116 12.4424 39.4623 12.2934 39.5643 12.1481C39.6663 12.0028 39.7195 11.8613 39.819 11.7451C39.9184 11.6288 40.0641 11.538 40.2456 11.4525C40.4273 11.3669 40.6449 11.2868 40.8272 11.2368C41.0093 11.1867 41.1563 11.1665 41.3037 11.158C41.4512 11.1494 41.5994 11.1524 41.7475 11.1553" stroke="white" stroke-width="0.3501"/>
<path d="M36.6367 11.908C37.1231 12.186 37.6095 12.4638 37.8527 12.6029C38.0958 12.7419 38.0958 12.7419 38.1056 12.7033C38.1152 12.6647 38.1347 12.5877 38.468 12.238C38.8009 11.8884 39.4477 11.2663 39.8805 10.8678C40.3135 10.4695 40.5323 10.2947 40.6806 10.2021C40.8288 10.1096 40.9066 10.0994 41.0186 10.1019C41.1304 10.1044 41.2764 10.1199 41.5245 10.1898C41.7727 10.2595 42.1233 10.3838 42.4739 10.5081" stroke="white" stroke-width="0.3501"/>
<path d="M39.0325 9.29688C39.6358 9.57223 40.2391 9.84749 40.8425 10.1228" stroke="white" stroke-width="0.3501"/>
<path d="M38.0854 12.75C38.0875 12.855 38.0896 12.96 38.0918 13.0651" stroke="white" stroke-width="0.3501"/>
<path d="M42.4003 10.4523C42.404 9.87209 42.4077 9.29182 42.378 8.80376C42.3483 8.3156 42.2851 7.91947 42.2219 7.52344" stroke="white" stroke-width="0.3501"/>
<path d="M41.8265 16.963C41.705 17.0402 41.5834 17.1172 41.3888 17.1943C41.1943 17.2714 40.9267 17.3486 40.6083 17.3974C40.2899 17.4462 39.9203 17.4668 39.5336 17.4515C39.147 17.436 38.7433 17.3845 38.3957 17.3178C38.048 17.2509 37.7562 17.1686 37.5349 17.071C37.3137 16.9732 37.1629 16.8601 37.0632 16.7445C36.9635 16.6289 36.9149 16.5105 36.8978 16.4077C36.8809 16.305 36.8955 16.2175 36.9611 16.1172C37.0267 16.0169 37.1435 15.9039 37.2893 15.8114C37.4352 15.7188 37.6103 15.6468 37.8169 15.58C38.0237 15.5132 38.262 15.4515 38.4758 15.4077C38.6899 15.3641 38.8795 15.3384 39.1106 15.3307C39.3415 15.323 39.6139 15.3332 39.8692 15.3538C40.1245 15.3744 40.3627 15.4052 40.5913 15.4567C40.8198 15.508 41.0388 15.58 41.2332 15.67C41.4277 15.7599 41.5979 15.868 41.7268 15.981C41.8556 16.0941 41.9432 16.2124 42.0186 16.3075C42.0941 16.4026 42.1572 16.4745 42.3274 16.5645C42.4976 16.6544 42.7749 16.7625 42.9693 16.8473C43.1639 16.9321 43.2756 16.9938 43.3802 17.0813C43.4849 17.1686 43.582 17.2817 43.6721 17.4462C43.7621 17.6108 43.8447 17.8266 43.8861 18.0761C43.9273 18.3253 43.9273 18.6082 43.7718 19.0451C43.616 19.4821 43.3048 20.0734 43.0106 20.585C42.7165 21.0965 42.4394 21.5283 42.1961 21.8702C41.9529 22.2121 41.7439 22.4641 41.615 22.6183C41.486 22.7725 41.4375 22.829 41.4181 22.9011C41.3986 22.973 41.4084 23.0605 41.4229 23.1196C41.4375 23.1787 41.457 23.2095 41.4495 23.2661C41.4424 23.3226 41.4084 23.405 41.3792 23.4846C41.35 23.5643 41.3256 23.6415 41.294 23.7159C41.2624 23.7904 41.2235 23.8625 41.1699 23.9268C41.1165 23.991 41.0484 24.0475 40.8636 24.1067C40.6789 24.1658 40.3774 24.2275 40.1147 24.2738C39.8521 24.32 39.6285 24.3509 39.3973 24.3664C39.1664 24.3817 38.9283 24.3817 38.7141 24.3509C38.5002 24.32 38.3106 24.2583 38.1209 24.171C37.9312 24.0835 37.7415 23.9704 37.5689 23.8343C37.3962 23.698 37.2408 23.5386 37.1458 23.3791C37.051 23.2198 37.017 23.0604 36.9951 22.9241C36.9732 22.7879 36.9635 22.6748 36.9198 22.5617C36.876 22.4486 36.7982 22.3356 36.7471 22.2404C36.6961 22.1453 36.6717 22.0682 36.6936 21.0759C36.7155 20.0836 36.7835 18.1763 36.8175 17.2226C36.8517 16.2689 36.8517 16.2689 36.8517 16.2689" stroke="white" stroke-width="0.3501"/>
<path d="M36.7468 22.2422C36.913 22.4368 37.0791 22.6312 37.3567 22.7902C37.6343 22.9491 38.0234 23.0725 38.444 23.1471C38.8646 23.2217 39.317 23.2473 39.7109 23.2396C40.1047 23.232 40.4403 23.1908 40.715 23.1291C40.9898 23.0674 41.2037 22.9851 41.4178 22.9029" stroke="white" stroke-width="0.3501"/>
<path d="M37.5662 23.6589C37.819 23.7462 38.0719 23.8337 38.3952 23.8748C38.7187 23.916 39.1126 23.9107 39.4919 23.8722C39.8712 23.8337 40.2359 23.7617 40.5479 23.6919C40.86 23.622 41.1193 23.5544 41.2491 23.5206C41.3788 23.4867 41.3788 23.4867 41.3854 23.4688C41.3921 23.4508 41.4053 23.4148 41.4186 23.3789" stroke="white" stroke-width="0.3501"/>
<path d="M41.8262 16.9648C42.0547 17.0368 42.2832 17.1088 42.5119 17.209C42.7404 17.3093 42.9689 17.4379 43.1489 17.6229C43.3288 17.808 43.4602 18.0496 43.5331 18.2861C43.606 18.5226 43.6206 18.754 43.5922 19.0109C43.5636 19.2678 43.492 19.5504 43.3879 19.8174C43.2837 20.0842 43.1471 20.3355 42.942 20.6236C42.7371 20.9117 42.4641 21.2364 42.2765 21.4322C42.0889 21.6279 41.9867 21.6948 41.8845 21.7616" stroke="white" stroke-width="0.3501"/>
<path d="M42.1044 17.3789C42.046 18.5872 41.9877 19.7953 41.956 20.4663C41.9244 21.1372 41.9196 21.2709 41.9123 21.3969C41.9049 21.5228 41.8952 21.6411 41.8855 21.7593" stroke="white" stroke-width="0.3501"/>
<path d="M38.4955 16.3891C38.4615 16.312 38.4372 16.2143 38.4688 16.1295C38.5004 16.0447 38.588 15.9727 38.7143 15.9136C38.8408 15.8545 39.0062 15.8082 39.1788 15.7903C39.3515 15.7722 39.5314 15.7824 39.7065 15.8108C39.8815 15.839 40.0518 15.8853 40.1806 15.9444C40.3095 16.0035 40.397 16.0755 40.4408 16.1552C40.4845 16.2349 40.4845 16.3223 40.4554 16.402C40.4262 16.4816 40.3679 16.5537 40.2512 16.6153C40.1344 16.6771 39.9594 16.7284 39.7428 16.7516C39.5265 16.7747 39.2688 16.7696 39.0742 16.7362C38.8797 16.7027 38.7484 16.641 38.6609 16.5819C38.5734 16.5228 38.5296 16.4662 38.4955 16.3891Z" stroke="white" stroke-width="0.3501"/>
<path d="M38.4573 16.2617C38.5914 16.4015 38.7257 16.5413 38.9274 16.5943C39.1289 16.6473 39.3981 16.6133 39.6105 16.5835C39.8229 16.5538 39.9786 16.528 40.1099 16.4985C40.2411 16.4689 40.3483 16.4356 40.4552 16.4021" stroke="white" stroke-width="0.3501"/>
<path d="M47.8925 5.26342C47.5132 4.81558 47.134 4.36765 46.6145 3.94061C46.0951 3.51347 45.4354 3.10731 44.6518 2.72258C43.8682 2.33784 42.9608 1.97452 41.6816 1.68434C40.4023 1.39407 38.7513 1.17684 37.3018 1.07126C35.8523 0.965673 34.6044 0.971729 33.4252 1.12785C32.2463 1.28388 31.1362 1.58997 30.1628 1.97932C29.1895 2.36857 28.353 2.84118 27.636 3.42226C26.919 4.00317 26.3217 4.69282 25.7979 5.39386C25.2739 6.09472 24.8235 6.80716 24.556 7.44818C24.2886 8.08919 24.2041 8.65889 24.2208 9.1455C24.2376 9.63203 24.3556 10.0357 24.5957 10.4698C24.8359 10.9039 25.1982 11.3685 25.6775 11.7682C26.1569 12.1677 26.7532 12.5021 27.4835 12.7634C28.2135 13.0246 29.0775 13.2127 29.9705 13.2719C30.8632 13.3307 31.7849 13.2606 32.5775 13.125C33.37 12.9894 34.0334 12.7882 34.6077 12.5491C35.182 12.3099 35.6673 12.0328 36.0814 11.6749C36.4955 11.317 36.8383 10.8785 37.0474 10.513C37.2565 10.1475 37.3318 9.85514 37.4013 9.24151C37.4709 8.62797 37.5346 7.69298 37.5982 6.75807" stroke="white" stroke-width="0.3501"/>
<path d="M29.532 9.42678C30.0927 8.85727 30.6532 8.28785 31.5301 7.83432C32.4071 7.3806 33.6003 7.04287 34.8124 6.87925C36.0246 6.71572 37.2555 6.72648 38.491 6.85014C39.7265 6.9739 40.9665 7.21065 41.9287 7.40239C42.8911 7.59413 43.5758 7.74084 44.206 7.79888C44.8361 7.85683 45.4119 7.82609 45.966 7.69899C46.5201 7.57189 47.053 7.34851 47.3898 7.09196C47.7267 6.83532 47.8676 6.5455 47.9188 6.23507C47.9701 5.92446 47.932 5.59315 47.9126 5.42763C47.8936 5.26193 47.8936 5.26193 47.7551 5.47382C47.6168 5.68572 47.3402 6.10942 46.8957 6.39688C46.451 6.68417 45.8385 6.83505 44.7227 6.81995C43.6068 6.80476 41.9874 6.62342 40.6388 6.44353C39.2902 6.26355 38.2125 6.08492 37.214 5.99596C36.2154 5.90701 35.2961 5.90774 34.3314 6.03701C33.3665 6.16637 32.3566 6.42409 31.5866 6.62134C30.8166 6.8185 30.2867 6.95519 29.7568 7.09187" stroke="white" stroke-width="0.3501"/>
<path d="M36.1303 7.97084C36.3013 8.01188 36.4693 8.1482 36.5834 8.29998C36.6974 8.45176 36.7574 8.61882 36.776 8.80187C36.7945 8.98475 36.7715 9.18345 36.7076 9.38504C36.6434 9.58663 36.5381 9.79093 36.3997 10.0073C36.2611 10.2234 36.0894 10.4514 35.9075 10.6183C35.7255 10.785 35.5331 10.8908 35.3647 10.8976C35.1962 10.9044 35.0514 10.8123 34.9326 10.6821C34.8137 10.5517 34.7208 10.3835 34.6955 10.157C34.67 9.93032 34.7123 9.64548 34.8123 9.35412C34.9122 9.06276 35.0698 8.76481 35.2125 8.54442C35.3552 8.32411 35.4831 8.18119 35.6342 8.08266C35.7851 7.98412 35.9593 7.9298 36.1303 7.97084Z" stroke="white" stroke-width="0.3501"/>
<path d="M31.2891 9.12891C31.2673 9.78773 31.2456 10.4465 31.2326 11.0882C31.2196 11.73 31.2155 12.3546 31.2112 12.9794" stroke="white" stroke-width="0.3501"/>
<path d="M34.5117 21.5508C34.835 21.9354 35.1585 22.3202 35.4272 22.7027C35.6958 23.0853 35.9097 23.4658 36.2356 23.8462C36.5614 24.2267 36.9991 24.6071 37.5826 24.9567C38.1661 25.3063 38.8956 25.625 39.4938 25.8564C40.092 26.0878 40.5588 26.2317 41.0661 26.4008C41.5733 26.5699 42.1209 26.7642 42.3947 26.8614C42.6685 26.9584 42.6685 26.9584 42.6685 26.9584" stroke="white" stroke-width="0.3501"/>
<path d="M32.8127 27.207C33.8382 27.9352 34.8634 28.6634 35.5709 29.2038C36.2782 29.7442 36.6678 30.0966 37.1106 30.324C37.5533 30.5513 38.0495 30.6535 38.812 30.828C39.5744 31.0026 40.6032 31.2497 41.6319 31.4966" stroke="white" stroke-width="0.3501"/>
<path d="M43.4568 23.989C43.2615 23.6284 43.0661 23.2676 42.7898 22.9263C42.5278 22.603 42.1932 22.297 42.0068 22.1289" stroke="white" stroke-width="0.3501"/>
<path d="M40.1833 35.2969C40.1764 35.4682 40.1696 35.6397 40.1626 35.8109M40.1339 36.5265C40.1273 36.6919 40.1207 36.8574 40.1141 37.0229M40.0853 37.7371C40.0787 37.9027 40.0721 38.0684 40.0654 38.234M40.0368 38.946C40.0302 39.1123 40.0234 39.2785 40.0168 39.4448M39.9883 40.1536C39.9816 40.3208 39.9748 40.4878 39.9683 40.655" stroke="white" stroke-width="0.3501"/>
</svg>
