<svg width="55" height="50" viewBox="0 0 55 50" fill="none" xmlns="http://www.w3.org/2000/svg">
<path d="M19.064 16.2634C19.2152 16.2757 19.511 16.3553 19.8299 16.4196C20.1486 16.4839 20.4905 16.5329 20.8193 16.5605C21.1479 16.588 21.4634 16.5941 21.7658 16.588C22.0681 16.5819 22.3575 16.5635 22.6435 16.5298C22.9293 16.4961 23.2119 16.4471 23.4124 16.4043C23.613 16.3614 23.7313 16.3247 23.7871 16.3676C23.843 16.4104 23.8365 16.5329 23.8234 16.6584C23.8102 16.7839 23.7905 16.9125 23.7511 17.0839C23.7115 17.2555 23.6524 17.4697 23.6097 17.6228C23.5669 17.7759 23.5408 17.8677 23.3764 17.9779C23.2119 18.0881 22.9097 18.2167 22.558 18.2902C22.2062 18.3637 21.8052 18.382 21.3681 18.3515C20.9309 18.3208 20.4576 18.2412 20.1026 18.1585C19.7476 18.0759 19.511 17.9901 19.3665 17.9075C19.2218 17.8249 19.1692 17.7452 19.1167 17.6167C19.064 17.4881 19.0115 17.3105 18.9785 17.1206C18.9458 16.9308 18.9326 16.7288 18.9227 16.6002C18.9129 16.4716 18.9062 16.4165 18.9062 16.3615C18.9062 16.3063 18.9129 16.2512 19.064 16.2634Z" stroke="white" stroke-width="0.3501"/>
<path d="M19.8291 16.4219C19.9397 16.6535 20.0503 16.8852 20.1025 17.1081C20.1545 17.3311 20.1478 17.5454 20.1063 17.7115C20.0647 17.8775 19.9881 17.9955 19.95 18.0544C19.9116 18.1133 19.9116 18.1133 19.9116 18.1133" stroke="white" stroke-width="0.3501"/>
<path d="M20.8184 16.5625C20.711 16.7226 20.6036 16.8829 20.5433 17.0458C20.4831 17.2085 20.4699 17.3738 20.4831 17.5483C20.4962 17.7228 20.5358 17.9065 20.5814 18.0301C20.6269 18.1537 20.6785 18.2172 20.7304 18.2807" stroke="white" stroke-width="0.3501"/>
<path d="M22.2047 16.5703C22.2926 16.7458 22.3805 16.9214 22.4212 17.1133C22.4619 17.3051 22.4552 17.5133 22.4224 17.6879C22.3896 17.8624 22.3304 18.0031 22.2854 18.1074C22.2405 18.2117 22.2096 18.2795 22.1788 18.3473" stroke="white" stroke-width="0.3501"/>
<path d="M22.7426 16.5195C22.7235 16.6757 22.7042 16.8319 22.6946 16.9957C22.685 17.1596 22.685 17.331 22.7211 17.4872C22.7573 17.6433 22.8296 17.7841 22.8791 17.8955C22.9285 18.0069 22.955 18.0888 22.9815 18.1708" stroke="white" stroke-width="0.3501"/>
<path d="M19.7247 18.0586C19.7256 18.2346 19.7265 18.4105 19.7271 18.4985C19.7275 18.5865 19.7275 18.5865 19.7275 18.5865" stroke="white" stroke-width="0.3501"/>
<path d="M19.7259 18.3232C19.6673 18.3469 19.6085 18.3705 19.5809 18.4023C19.5532 18.4341 19.5565 18.4739 19.5861 18.506C19.6156 18.5382 19.6715 18.5627 19.775 18.6041C19.8786 18.6453 20.0298 18.7036 20.2435 18.7448C20.4571 18.7861 20.7332 18.8107 20.9682 18.8229C21.2033 18.8351 21.3971 18.8351 21.6026 18.826C21.808 18.8168 22.0248 18.7984 22.204 18.7786C22.3832 18.7586 22.5244 18.7372 22.651 18.6989C22.7776 18.6606 22.8894 18.6055 22.9583 18.5612C23.0273 18.5168 23.0537 18.4831 23.0656 18.4141C23.0775 18.3452 23.0749 18.2409 23.0723 18.1367" stroke="white" stroke-width="0.3501"/>
<path d="M22.3207 22.6283C22.2714 22.5732 22.2221 22.5181 22.1301 22.4079C22.0379 22.2977 21.9032 22.1324 21.7947 21.944C21.6863 21.7558 21.6041 21.5445 21.5763 21.3563C21.5482 21.1679 21.5746 21.0026 21.6355 20.8588C21.6961 20.7149 21.7915 20.5924 21.9377 20.4394C22.084 20.2863 22.2812 20.1025 22.4702 19.948C22.6591 19.7933 22.84 19.6678 23.0158 19.5561C23.1916 19.4443 23.3627 19.3464 23.448 19.2974C23.5335 19.2484 23.5335 19.2484 23.5335 19.1704C23.5335 19.0923 23.5335 18.9361 23.5171 18.8428C23.5006 18.7494 23.4678 18.7187 23.3897 18.6577C23.3119 18.5968 23.1886 18.5055 23.0655 18.4141" stroke="white" stroke-width="0.3501"/>
<path d="M27.2294 19.7463C27.3035 19.8519 27.3757 19.8703 27.4528 19.9147C27.5301 19.9591 27.6124 20.0295 27.6815 20.1244C27.7503 20.2193 27.8062 20.3387 27.8424 20.4872C27.8787 20.6357 27.895 20.8133 27.9033 20.9877C27.9114 21.1622 27.9114 21.3337 27.8885 21.5189C27.8654 21.7042 27.8194 21.9031 27.7554 22.1114C27.6912 22.3195 27.6091 22.5369 27.5137 22.7252C27.4185 22.9134 27.3099 23.0726 27.2114 23.1706C27.1127 23.2686 27.024 23.3053 26.434 23.2364C25.844 23.1676 24.7529 22.993 24.1596 22.8736C23.5662 22.7543 23.471 22.6899 23.4019 22.6088C23.3329 22.5277 23.2903 22.4297 23.2474 22.2797C23.2048 22.1297 23.1619 21.9276 23.1488 21.7042C23.1357 21.4807 23.1521 21.2358 23.1982 20.9724C23.2441 20.7092 23.3198 20.4275 23.3887 20.2514C23.4578 20.0754 23.5202 20.005 23.5925 19.9177C23.6648 19.8305 23.7471 19.7264 23.8096 19.6285C23.8719 19.5305 23.9147 19.4386 23.9838 19.3008C24.0526 19.1631 24.1481 18.9794 24.2154 18.8738C24.2828 18.7681 24.3222 18.7406 24.3616 18.7223C24.4012 18.7039 24.4406 18.6947 24.8448 18.739C25.2491 18.7834 26.0183 18.8814 26.4159 18.9381C26.8137 18.9947 26.84 19.01 26.876 19.0559C26.9123 19.1019 26.9583 19.1784 27.019 19.3132C27.0799 19.4478 27.1554 19.6407 27.2294 19.7463Z" stroke="white" stroke-width="0.3501"/>
<path d="M24.278 18.7891C25.0588 18.9017 25.8395 19.0145 26.2397 19.074C26.6399 19.1333 26.6597 19.1395 26.6893 19.1854C26.7189 19.2313 26.7583 19.3171 26.806 19.4441C26.8536 19.5712 26.9094 19.7396 26.9358 19.8406C26.962 19.9416 26.9588 19.9753 26.9391 20.0227C26.9194 20.0702 26.8832 20.1314 26.8241 20.2325C26.7649 20.3334 26.6827 20.4742 26.6055 20.635C26.5282 20.7957 26.4559 20.9764 26.405 21.18C26.354 21.3836 26.3245 21.6101 26.3113 21.8291C26.2981 22.0479 26.3014 22.2592 26.3261 22.4398C26.3508 22.6204 26.3968 22.7705 26.4526 22.8929C26.5085 23.0154 26.5743 23.1103 26.62 23.1677C26.6656 23.2251 26.6913 23.2452 26.7168 23.2652" stroke="white" stroke-width="0.3501"/>
<path d="M27.3634 20.8692C27.319 20.8402 27.2797 20.8341 27.2286 20.8448C27.1778 20.8555 27.1152 20.8831 27.0611 20.9443C27.0068 21.0055 26.9608 21.1004 26.9166 21.2489C26.8722 21.3973 26.8293 21.5994 26.8228 21.7647C26.8162 21.93 26.8457 22.0586 26.887 22.1597C26.928 22.2607 26.9806 22.3343 27.0447 22.3725C27.1087 22.4107 27.1843 22.4138 27.2484 22.3847C27.3125 22.3557 27.3651 22.2943 27.4178 22.1826C27.4702 22.0708 27.5229 21.9086 27.5509 21.7479C27.5787 21.5871 27.5821 21.428 27.5705 21.304C27.559 21.18 27.5328 21.0912 27.4949 21.0208C27.4572 20.9504 27.4078 20.8983 27.3634 20.8692Z" stroke="white" stroke-width="0.3501"/>
<path d="M26.9394 20.0209C25.9125 19.8629 24.8854 19.7049 23.8584 19.5469" stroke="white" stroke-width="0.3501"/>
<path d="M26.7099 20.4331C25.7332 20.2952 24.7567 20.1574 23.78 20.0195" stroke="white" stroke-width="0.3501"/>
<path d="M23.8883 19.3682C23.816 19.3621 23.7438 19.3559 23.6823 19.3362C23.6207 19.3166 23.5699 19.2833 23.519 19.25" stroke="white" stroke-width="0.3501"/>
<path d="M23.9007 19.4677C23.7782 19.538 23.6557 19.6082 23.5501 19.7122C23.4445 19.8162 23.3557 19.954 23.2703 20.1209C23.1848 20.2877 23.1026 20.4836 23.0451 20.7148C22.9876 20.9459 22.9547 21.2122 22.9432 21.4526C22.9318 21.693 22.9415 21.9072 22.9893 22.094C23.037 22.2807 23.1224 22.4399 23.2012 22.5379C23.2801 22.6359 23.3524 22.6726 23.387 22.691C23.4215 22.7093 23.4181 22.7093 23.3837 22.7369C23.3492 22.7645 23.2835 22.8195 23.198 22.8777C23.1126 22.9359 23.0073 22.9971 22.8626 23.0492C22.718 23.1012 22.5341 23.1441 22.3451 23.1717C22.1561 23.1992 21.9621 23.2114 21.7123 23.2085C21.4625 23.2053 21.1569 23.187 20.8594 23.1671C20.562 23.1472 20.2728 23.1257 20.0477 23.092C19.8224 23.0583 19.6614 23.0125 19.5233 22.9344C19.3853 22.8563 19.2702 22.7462 19.1962 22.668C19.1223 22.5899 19.0895 22.544 19.0748 21.9455C19.0599 21.347 19.0631 20.1958 19.0681 19.6141C19.0731 19.0324 19.0796 19.0202 19.1257 18.956C19.1716 18.8916 19.2571 18.7754 19.3364 18.6829C19.4155 18.5905 19.4886 18.5218 19.5252 18.4876C19.5618 18.4532 19.5618 18.4532 19.5658 18.4617C19.5697 18.4703 19.5778 18.4873 19.5858 18.5043" stroke="white" stroke-width="0.3501"/>
<path d="M19.2644 19.1172C19.3794 19.1784 19.4943 19.2396 19.6522 19.2871C19.8101 19.3346 20.0105 19.3683 20.2438 19.3911C20.4772 19.4142 20.7435 19.4264 20.9571 19.428C21.1708 19.4294 21.3318 19.4203 21.552 19.385C21.7722 19.3499 22.0516 19.2886 22.2423 19.2488C22.4329 19.2091 22.5348 19.1906 22.6367 19.1723" stroke="white" stroke-width="0.3501"/>
<path d="M20.7727 23.067C20.7727 22.1332 20.7727 21.1994 20.7727 20.2656" stroke="white" stroke-width="0.3501"/>
<path d="M19.0611 18.9864C19.083 18.9763 19.1049 18.9662 19.0336 18.9988C18.9624 19.0315 18.798 19.107 18.6238 19.307C18.4496 19.507 18.2656 19.8316 18.1686 20.0245C18.0716 20.2173 18.0617 20.2786 18.0569 20.349C18.0519 20.4194 18.0519 20.499 18.088 20.6076C18.1242 20.7163 18.1965 20.8541 18.2951 21.0286C18.3937 21.2031 18.5186 21.4143 18.6106 21.5246C18.7028 21.6348 18.7619 21.6439 18.8329 21.6485C18.9041 21.6531 18.9872 21.653 19.0704 21.653" stroke="white" stroke-width="0.3501"/>
<path d="M19.0732 19.2812C18.9725 19.3831 18.8718 19.485 18.7886 19.6095C18.7055 19.734 18.6398 19.8808 18.5987 20.0371C18.5576 20.1932 18.5411 20.3585 18.5445 20.5193C18.5477 20.6799 18.5708 20.8361 18.6233 20.98C18.676 21.1238 18.758 21.2555 18.8372 21.3473C18.9164 21.4391 18.9925 21.491 19.0686 21.5429" stroke="white" stroke-width="0.3501"/>
<path d="M19.0674 18.9829C18.7877 18.9483 18.5079 18.9139 18.3631 18.8997C18.2184 18.8856 18.2085 18.8917 18.0507 19.031C17.893 19.1703 17.5872 19.4428 17.4147 19.6449C17.2422 19.8469 17.2026 19.9786 17.1797 20.101C17.1566 20.2235 17.1502 20.3368 17.1469 20.4515C17.1434 20.5663 17.1434 20.6827 17.1682 20.7944C17.1928 20.9062 17.2422 21.0133 17.3801 21.1572C17.5183 21.3011 17.745 21.4818 17.8765 21.5752C18.0081 21.6685 18.0441 21.6746 18.2072 21.673C18.3704 21.6713 18.6604 21.6619 18.9505 21.6525" stroke="white" stroke-width="0.3501"/>
<path d="M17.1569 20.2734C17.4592 20.2771 17.7615 20.2809 18.0638 20.2844" stroke="white" stroke-width="0.3501"/>
<path d="M18.0503 19.0312C18.303 19.0647 18.5557 19.098 18.8084 19.1314" stroke="white" stroke-width="0.3501"/>
<path d="M17.8235 19.1562C17.5113 19.1562 17.199 19.1563 17.0381 19.1654C16.877 19.1746 16.8672 19.1929 16.8277 19.268C16.7883 19.343 16.7193 19.4746 16.6551 19.6139C16.591 19.7532 16.5319 19.9002 16.4974 20.0241C16.4628 20.1481 16.453 20.2492 16.4662 20.3701C16.4793 20.491 16.5155 20.6319 16.5599 20.7865C16.6043 20.9411 16.6568 21.1095 16.7126 21.2074C16.7686 21.3054 16.8277 21.333 16.9165 21.359C17.0052 21.385 17.1234 21.4095 17.2455 21.4122C17.3676 21.415 17.4931 21.3958 17.6189 21.3767" stroke="white" stroke-width="0.3501"/>
<path d="M16.2397 19.1988C16.2101 19.2386 16.1148 19.3122 16.0293 19.4269C15.9439 19.5417 15.8683 19.6979 15.8158 19.8662C15.7631 20.0346 15.7336 20.2153 15.7253 20.3837C15.7171 20.552 15.7303 20.7082 15.7631 20.8368C15.7959 20.9653 15.8486 21.0664 15.8814 21.1184C15.9143 21.1704 15.9275 21.1735 15.8979 21.1751C15.8683 21.1765 15.7959 21.1765 15.7187 21.1735C15.6416 21.1704 15.5592 21.1643 15.5149 21.1628C15.4706 21.1612 15.4641 21.1643 15.4411 21.1322C15.418 21.1001 15.3786 21.0327 15.3474 20.8964C15.3162 20.7601 15.2931 20.555 15.2915 20.379C15.2899 20.203 15.3095 20.0561 15.3442 19.9182C15.3786 19.7805 15.4279 19.6519 15.4985 19.5448C15.5693 19.4376 15.6613 19.3519 15.7352 19.2891C15.809 19.2263 15.865 19.1866 15.9028 19.1652C15.9406 19.1438 15.9603 19.1406 16.0063 19.1406C16.0524 19.1406 16.1248 19.1438 16.1789 19.1483C16.2332 19.1529 16.2693 19.159 16.2397 19.1988Z" stroke="white" stroke-width="0.3501"/>
<path d="M16.792 19.2144C16.7624 19.2542 16.6671 19.3277 16.5816 19.4425C16.4961 19.5573 16.4206 19.7134 16.368 19.8818C16.3153 20.0502 16.2858 20.2308 16.2777 20.3992C16.2693 20.5675 16.2824 20.7237 16.3153 20.8524C16.3483 20.9809 16.4009 21.082 16.4337 21.134C16.4666 21.1859 16.4797 21.1891 16.4502 21.1906C16.4206 21.1921 16.3483 21.1921 16.271 21.1891C16.1937 21.1859 16.1116 21.1798 16.0673 21.1784C16.0229 21.1768 16.0162 21.1798 15.9933 21.1478C15.9703 21.1156 15.9308 21.0483 15.8996 20.9121C15.8683 20.7758 15.8454 20.5706 15.8437 20.3946C15.8421 20.2185 15.8619 20.0716 15.8964 19.9339C15.9308 19.7961 15.9802 19.6675 16.0508 19.5604C16.1215 19.4531 16.2135 19.3675 16.2874 19.3047C16.3614 19.2419 16.4173 19.2021 16.4551 19.1808C16.4929 19.1593 16.5126 19.1562 16.5587 19.1562C16.6047 19.1562 16.677 19.1593 16.7312 19.1638C16.7853 19.1685 16.8216 19.1746 16.792 19.2144Z" stroke="white" stroke-width="0.3501"/>
<path d="M15.6876 19.1871C15.658 19.2268 15.5626 19.3003 15.4773 19.4151C15.3918 19.5299 15.3162 19.6861 15.2635 19.8545C15.211 20.0229 15.1814 20.2035 15.1732 20.3718C15.1649 20.5402 15.178 20.6964 15.211 20.825C15.2439 20.9535 15.2964 21.0546 15.3293 21.1066C15.3622 21.1586 15.3753 21.1617 15.3457 21.1633C15.3162 21.1647 15.2439 21.1647 15.1667 21.1617C15.0893 21.1586 15.0072 21.1525 14.9628 21.151C14.9184 21.1495 14.9118 21.1525 14.8889 21.1204C14.8658 21.0883 14.8264 21.0209 14.7952 20.8846C14.764 20.7484 14.7409 20.5433 14.7394 20.3672C14.7376 20.1912 14.7574 20.0443 14.7919 19.9065C14.8264 19.7688 14.8758 19.6401 14.9464 19.533C15.0171 19.4258 15.1091 19.3402 15.1831 19.2774C15.257 19.2146 15.3128 19.1748 15.3507 19.1534C15.3885 19.132 15.4082 19.1289 15.4541 19.1289C15.5002 19.1289 15.5726 19.132 15.6268 19.1365C15.681 19.1411 15.7172 19.1473 15.6876 19.1871Z" stroke="white" stroke-width="0.3501"/>
<path d="M15.1206 19.1598C15.0911 19.1996 14.9958 19.273 14.9104 19.3878C14.8249 19.5026 14.7493 19.6588 14.6967 19.8272C14.644 19.9955 14.6145 20.1762 14.6063 20.3445C14.5981 20.5129 14.6113 20.6691 14.644 20.7977C14.6769 20.9262 14.7295 21.0273 14.7624 21.0794C14.7952 21.1313 14.8084 21.1345 14.7788 21.136C14.7493 21.1374 14.6769 21.1374 14.5997 21.1345C14.5225 21.1313 14.4402 21.1252 14.3959 21.1237C14.3515 21.1222 14.345 21.1252 14.322 21.0931C14.299 21.061 14.2595 20.9936 14.2283 20.8574C14.1972 20.7212 14.174 20.516 14.1725 20.34C14.1708 20.1639 14.1904 20.017 14.2251 19.8793C14.2595 19.7414 14.3088 19.6129 14.3794 19.5057C14.4502 19.3985 14.5422 19.3128 14.6162 19.2501C14.69 19.1873 14.746 19.1475 14.7838 19.1261C14.8215 19.1046 14.8413 19.1016 14.8872 19.1016C14.9333 19.1016 15.0057 19.1046 15.0599 19.1092C15.1141 19.1139 15.1502 19.12 15.1206 19.1598Z" stroke="white" stroke-width="0.3501"/>
<path d="M14.5519 19.1325C14.5223 19.1723 14.4269 19.2457 14.3415 19.3606C14.256 19.4753 14.1804 19.6315 14.1279 19.7999C14.0752 19.9683 14.0457 20.1489 14.0375 20.3173C14.0292 20.4857 14.0424 20.6418 14.0752 20.7704C14.1081 20.899 14.1607 21 14.1936 21.0521C14.2265 21.1041 14.2395 21.1072 14.21 21.1087C14.1804 21.1102 14.1081 21.1102 14.0308 21.1072C13.9536 21.1041 13.8716 21.0979 13.8272 21.0964C13.7828 21.095 13.7761 21.0979 13.7531 21.0658C13.7301 21.0337 13.6907 20.9663 13.6594 20.8301C13.6282 20.6939 13.6053 20.4887 13.6036 20.3127C13.602 20.1366 13.6217 19.9897 13.6562 19.852C13.6907 19.7141 13.7401 19.5856 13.8107 19.4784C13.8813 19.3713 13.9733 19.2856 14.0473 19.2228C14.1213 19.1601 14.1772 19.1202 14.2151 19.0988C14.2527 19.0774 14.2725 19.0742 14.3186 19.0742C14.3646 19.0742 14.4369 19.0774 14.4911 19.0819C14.5453 19.0865 14.5815 19.0926 14.5519 19.1325Z" stroke="white" stroke-width="0.3501"/>
<path d="M13.8852 19.1268C13.8579 19.168 13.7668 19.2461 13.688 19.3649C13.6092 19.4837 13.5423 19.6434 13.4993 19.814C13.4563 19.9847 13.4369 20.1666 13.4382 20.3351C13.4394 20.5037 13.4613 20.659 13.5013 20.7858C13.5413 20.9125 13.5996 21.0109 13.6352 21.0613C13.671 21.1117 13.6843 21.114 13.6549 21.117C13.6253 21.12 13.5532 21.1235 13.4759 21.1243C13.3985 21.1249 13.3161 21.1228 13.2718 21.1235C13.2273 21.1241 13.221 21.1275 13.1963 21.0965C13.1714 21.0656 13.1284 21.0002 13.0895 20.8657C13.0506 20.7312 13.016 20.5274 13.0046 20.3517C12.993 20.176 13.0045 20.0283 13.0312 19.889C13.0579 19.7498 13.1 19.619 13.1645 19.5085C13.2291 19.3981 13.3161 19.3079 13.3865 19.2417C13.4568 19.1754 13.5105 19.133 13.5468 19.1097C13.5834 19.0864 13.6029 19.0824 13.6489 19.0801C13.6949 19.0779 13.7673 19.0774 13.8217 19.0794C13.876 19.0813 13.9126 19.0856 13.8852 19.1268Z" stroke="white" stroke-width="0.3501"/>
<path d="M13.216 19.1265C13.1911 19.1689 13.1044 19.2513 13.0323 19.3738C12.9602 19.4963 12.9025 19.6589 12.8691 19.8315C12.8357 20.0041 12.8266 20.1866 12.8373 20.3548C12.8481 20.5231 12.8787 20.6772 12.9258 20.8018C12.9729 20.9265 13.0365 21.0218 13.075 21.0705C13.1136 21.119 13.127 21.1208 13.0977 21.1252C13.0685 21.1295 12.9966 21.1366 12.9194 21.141C12.8423 21.1455 12.7598 21.1474 12.7155 21.1503C12.6712 21.1531 12.6651 21.1568 12.6386 21.127C12.6121 21.0973 12.5653 21.0341 12.519 20.9017C12.4726 20.7692 12.4267 20.5674 12.4054 20.3925C12.3839 20.2176 12.3871 20.0696 12.4059 19.9292C12.4248 19.7888 12.4595 19.6562 12.5176 19.5427C12.5758 19.4292 12.6577 19.3351 12.7244 19.2654C12.7908 19.1958 12.842 19.1508 12.8771 19.1258C12.9122 19.1008 12.9316 19.0958 12.9773 19.0913C13.0232 19.0869 13.0954 19.0829 13.1497 19.0821C13.2042 19.0814 13.241 19.084 13.216 19.1265Z" stroke="white" stroke-width="0.3501"/>
<path d="M12.5458 19.1204C12.5232 19.164 12.4415 19.2505 12.3763 19.3763C12.3112 19.5021 12.2627 19.6674 12.2391 19.8414C12.2154 20.0153 12.2166 20.198 12.2366 20.3656C12.2568 20.5331 12.2961 20.6853 12.3501 20.8076C12.4042 20.9298 12.4731 21.022 12.5143 21.0685C12.5556 21.1151 12.5691 21.1162 12.54 21.1221C12.5111 21.1279 12.4397 21.1385 12.3629 21.1467C12.286 21.1549 12.2039 21.1609 12.1597 21.1657C12.1157 21.1707 12.1098 21.1747 12.0816 21.1463C12.0535 21.1179 12.0032 21.0571 11.9496 20.9272C11.8958 20.7971 11.8385 20.5978 11.8074 20.4242C11.7762 20.2506 11.771 20.1026 11.782 19.9615C11.7929 19.8203 11.82 19.6862 11.8718 19.5701C11.9237 19.4539 12.0002 19.3559 12.0626 19.2831C12.1251 19.2103 12.1736 19.1629 12.2074 19.1362C12.2411 19.1095 12.2601 19.1036 12.3055 19.0969C12.3509 19.0902 12.4229 19.0827 12.4773 19.0793C12.5316 19.076 12.5682 19.0767 12.5458 19.1204Z" stroke="white" stroke-width="0.3501"/>
<path d="M11.8747 19.2047C11.8546 19.2493 11.7777 19.3397 11.7198 19.4685C11.6619 19.5973 11.6228 19.7647 11.6089 19.9396C11.595 20.1145 11.6064 20.297 11.6359 20.4632C11.6655 20.6295 11.7132 20.7797 11.7741 20.8992C11.8349 21.0185 11.9089 21.1072 11.9527 21.1517C11.9964 21.1962 12.01 21.1968 11.9814 21.2039C11.9528 21.2111 11.882 21.2251 11.8058 21.2372C11.7297 21.249 11.6478 21.259 11.6041 21.2661C11.5604 21.2732 11.5546 21.2775 11.525 21.2505C11.4953 21.2235 11.4416 21.1653 11.3806 21.0381C11.3198 20.9108 11.2514 20.7146 11.2107 20.5427C11.1697 20.3708 11.1562 20.2234 11.1592 20.082C11.1622 19.9404 11.1816 19.8051 11.2268 19.6866C11.2721 19.5681 11.343 19.4665 11.4013 19.3908C11.4597 19.315 11.5054 19.2653 11.5376 19.237C11.5698 19.2087 11.5884 19.2019 11.6334 19.193C11.6784 19.184 11.7498 19.173 11.804 19.1671C11.8579 19.161 11.8947 19.16 11.8747 19.2047Z" stroke="white" stroke-width="0.3501"/>
<path d="M11.2019 19.2853C11.1845 19.3309 11.1127 19.4249 11.0621 19.5564C11.0116 19.6879 10.9818 19.8569 10.9778 20.0323C10.9738 20.2076 10.9955 20.3892 11.0343 20.5538C11.0731 20.7184 11.1292 20.8662 11.1968 20.9824C11.2641 21.0987 11.343 21.1836 11.3892 21.226C11.4356 21.2682 11.4491 21.2681 11.4209 21.2767C11.3927 21.2853 11.3228 21.3027 11.2474 21.3184C11.172 21.334 11.0908 21.3479 11.0476 21.3572C11.0042 21.3664 10.9989 21.3709 10.9677 21.3454C10.9365 21.3199 10.8798 21.2644 10.8117 21.1403C10.7437 21.0162 10.6644 20.8236 10.614 20.654C10.5634 20.4843 10.5417 20.3377 10.5367 20.1962C10.5317 20.0549 10.5436 19.9188 10.5822 19.7982C10.6207 19.6777 10.6858 19.5727 10.7398 19.4942C10.7937 19.4158 10.8367 19.3639 10.8672 19.3341C10.8977 19.3043 10.9159 19.2965 10.9603 19.2854C11.0048 19.2744 11.0756 19.2599 11.1292 19.2512C11.1829 19.2426 11.2195 19.2398 11.2019 19.2853Z" stroke="white" stroke-width="0.3501"/>
<path d="M10.5293 19.413C10.5143 19.4594 10.448 19.5567 10.4049 19.6905C10.3616 19.8242 10.3416 19.9946 10.3474 20.1698C10.3532 20.3451 10.3851 20.5254 10.4331 20.6879C10.4811 20.8504 10.5454 20.9951 10.6193 21.108C10.6932 21.2208 10.7769 21.3018 10.8254 21.3418C10.8739 21.3818 10.8873 21.3809 10.8597 21.3909C10.8321 21.4009 10.7634 21.4217 10.6889 21.441C10.6144 21.4604 10.5343 21.4782 10.4915 21.4895C10.4488 21.5008 10.4435 21.5056 10.411 21.4817C10.3784 21.4578 10.3187 21.405 10.2437 21.2845C10.1688 21.1638 10.0788 20.9753 10.0189 20.8084C9.95892 20.6415 9.92904 20.4961 9.91608 20.3551C9.90328 20.2141 9.90738 20.0776 9.93906 19.9554C9.97065 19.8331 10.0298 19.7251 10.0793 19.6442C10.1288 19.5632 10.1688 19.5092 10.1976 19.478C10.2264 19.4467 10.2442 19.4381 10.288 19.4248C10.3318 19.4116 10.4016 19.3937 10.4546 19.3825C10.5078 19.3713 10.5441 19.3667 10.5293 19.413Z" stroke="white" stroke-width="0.3501"/>
<path d="M9.85612 19.5369C9.84373 19.584 9.78308 19.6843 9.74738 19.8201C9.71185 19.9558 9.70126 20.1268 9.7171 20.3015C9.7327 20.4762 9.77463 20.6548 9.83175 20.8147C9.88886 20.9747 9.96108 21.1161 10.0413 21.2252C10.1215 21.3342 10.2095 21.411 10.2601 21.4486C10.3109 21.4862 10.3244 21.4847 10.2973 21.496C10.2703 21.5072 10.2028 21.5314 10.1294 21.5543C10.0562 21.5773 9.97708 21.599 9.93507 21.6124C9.89305 21.6258 9.88804 21.6308 9.85423 21.6085C9.82034 21.5861 9.75764 21.5364 9.67615 21.4197C9.59458 21.3028 9.49413 21.1191 9.42487 20.9553C9.35561 20.7915 9.31745 20.6477 9.29677 20.5076C9.27592 20.3675 9.27256 20.2309 9.29718 20.1073C9.32196 19.9837 9.37498 19.8729 9.41987 19.7897C9.46467 19.7063 9.5016 19.6506 9.5286 19.618C9.55568 19.5853 9.57283 19.5759 9.61584 19.5605C9.65884 19.5451 9.72744 19.5239 9.7798 19.51C9.83224 19.4963 9.86843 19.4899 9.85612 19.5369Z" stroke="white" stroke-width="0.3501"/>
<path d="M9.18299 19.7546C9.17323 19.8022 9.11824 19.9055 9.09042 20.0427C9.06236 20.1799 9.06145 20.3513 9.08698 20.5249C9.1125 20.6987 9.16436 20.8749 9.23034 21.0319C9.29632 21.1889 9.37658 21.3265 9.46275 21.4316C9.54892 21.5365 9.64108 21.6089 9.69384 21.644C9.74653 21.6791 9.75991 21.6769 9.73356 21.6895C9.70714 21.7021 9.64116 21.7295 9.56927 21.756C9.49738 21.7824 9.41958 21.808 9.37831 21.8234C9.33719 21.8388 9.33251 21.844 9.29747 21.8235C9.26243 21.8028 9.19703 21.7562 9.10897 21.6436C9.02092 21.5309 8.91037 21.3522 8.83192 21.192C8.75363 21.0319 8.70743 20.8901 8.67887 20.7512C8.65015 20.6123 8.63915 20.4762 8.65688 20.3515C8.6746 20.2268 8.72122 20.1137 8.76143 20.0283C8.80147 19.9429 8.83528 19.8854 8.86031 19.8515C8.88559 19.8176 8.90217 19.8073 8.94427 19.7899C8.98628 19.7725 9.05374 19.7479 9.10528 19.7315C9.15681 19.7151 9.19251 19.7071 9.18299 19.7546Z" stroke="white" stroke-width="0.3501"/>
<path d="M19.6438 23.1316C19.6488 23.0382 19.6585 23.0489 19.8032 23.1079C19.9478 23.1668 20.2272 23.274 20.4836 23.3368C20.74 23.3995 20.9733 23.4179 21.1968 23.4271C21.4203 23.4362 21.634 23.4362 21.8115 23.4163C21.9889 23.3965 22.1303 23.3566 22.2469 23.3245C22.3636 23.2924 22.4556 23.2679 22.5543 23.2234C22.653 23.1791 22.758 23.1148 22.8106 23.0827C22.8632 23.0504 22.8632 23.0504 22.8715 23.1393C22.8797 23.2281 22.8961 23.4056 22.8945 23.5067C22.8929 23.6077 22.8732 23.6322 22.8156 23.6782C22.7581 23.724 22.6627 23.7914 22.5148 23.8603C22.3669 23.9292 22.1665 23.9996 21.9266 24.0348C21.6865 24.07 21.4073 24.07 21.159 24.0516C20.9108 24.0332 20.6939 23.9964 20.5114 23.9598C20.3292 23.9231 20.1812 23.8863 20.0465 23.8373C19.9116 23.7883 19.79 23.7271 19.7244 23.6888C19.6585 23.6506 19.6488 23.6353 19.6438 23.5288C19.6389 23.4225 19.6389 23.225 19.6438 23.1316Z" stroke="white" stroke-width="0.3501"/>
<path d="M19.5649 23.4297C19.532 23.5062 19.4991 23.5828 19.4761 23.6425C19.4531 23.7022 19.4398 23.7451 19.4449 23.7741C19.4498 23.8032 19.4728 23.8185 19.7111 23.9058C19.9495 23.993 20.403 24.1522 20.6363 24.2349C20.8697 24.3175 20.8828 24.3236 21.2033 24.293C21.5237 24.2624 22.1516 24.1951 22.4655 24.1614C22.7793 24.1277 22.7793 24.1277 22.8417 24.045C22.9042 23.9624 23.0291 23.7971 23.0933 23.7113C23.1574 23.6256 23.1607 23.6195 23.1173 23.5983C23.0741 23.5771 22.9842 23.5409 22.9393 23.5228C22.8944 23.5047 22.8944 23.5047 22.8944 23.5047" stroke="white" stroke-width="0.3501"/>
<path d="M19.3282 23.9023C19.3249 24.3983 19.3215 24.8942 19.3232 25.1629C19.3249 25.4316 19.3314 25.4729 19.3554 25.5029C19.3792 25.5328 19.4204 25.5514 19.6677 25.6403C19.9152 25.7292 20.3687 25.8884 20.6021 25.9711C20.8355 26.0538 20.8486 26.0599 21.1691 26.0293C21.4894 25.9986 22.1173 25.9313 22.4313 25.8976C22.7451 25.8639 22.7451 25.8639 22.8137 25.7724C22.8822 25.6809 23.0195 25.4977 23.1565 25.3146" stroke="white" stroke-width="0.3501"/>
<path d="M23.135 23.6523C23.1356 24.215 23.1363 24.7776 23.137 25.3403" stroke="white" stroke-width="0.3501"/>
<path d="M20.8521 24.332C20.8536 24.8892 20.8552 25.4464 20.856 25.725C20.8568 26.0036 20.8568 26.0036 20.8568 26.0036" stroke="white" stroke-width="0.3501"/>
<path d="M19.327 23.9302C19.3469 23.8751 19.3667 23.8199 19.3914 23.7723C19.4161 23.7247 19.4457 23.6846 19.4752 23.6445" stroke="white" stroke-width="0.3501"/>
<path d="M19.5367 23.4599C19.5634 23.4186 19.5901 23.3772 19.6168 23.3359" stroke="white" stroke-width="0.3501"/>
<path d="M23.1728 25.4446C23.1728 25.4446 23.1728 25.4446 23.1728 25.4628C23.1729 25.4812 23.1732 25.5176 23.187 25.5488C23.2008 25.5799 23.2281 25.6059 23.232 25.723C23.2358 25.84 23.2161 26.0481 23.2358 26.1706C23.2556 26.2931 23.3147 26.3298 27.9327 29.3515C32.5507 32.3733 41.7275 38.3799 46.8023 41.6804C51.8772 44.9805 52.8501 45.5746 53.3629 45.9052C53.8756 46.2358 53.9282 46.3031 53.9626 46.3766C53.9973 46.4501 54.0137 46.5297 53.9874 46.8558C53.9611 47.1818 53.892 47.7543 53.7851 48.1125C53.6783 48.4707 53.5337 48.6146 53.381 48.7264C53.2281 48.8381 53.0671 48.9176 52.809 48.9743C52.551 49.031 52.1961 49.0646 51.8575 49.0662C51.5188 49.0677 51.1968 49.0371 50.8912 48.9805C50.5854 48.9238 50.2962 48.8411 50.0152 48.734C49.7342 48.6269 49.4613 48.4951 49.2643 48.3651C49.0669 48.235 48.9453 48.1064 48.8746 48.0176C48.8041 47.9288 48.7843 47.8798 48.7843 47.7818C48.7843 47.6839 48.8041 47.537 48.8238 47.4236C48.8435 47.3104 48.8632 47.2308 48.8632 47.1742C48.8632 47.1175 48.8435 47.0838 48.4047 46.8037C47.9659 46.5235 47.1081 45.997 45.7078 45.1153C44.3077 44.2336 42.3651 42.9967 40.0299 41.4429C37.6946 39.8892 34.9665 38.0187 31.6271 35.7088C28.2878 33.3988 24.337 30.6495 22.263 29.2045C20.189 27.7595 19.9917 27.6187 19.839 27.5116C19.6861 27.4044 19.5775 27.3309 19.4954 27.2376C19.4133 27.1442 19.3573 27.0308 19.3278 26.838C19.2982 26.6451 19.2949 26.3726 19.3049 26.1538C19.3147 25.9348 19.3377 25.7695 19.3493 25.6869C19.3606 25.6042 19.3606 25.6042 19.3606 25.6042C19.3606 25.6042 19.3606 25.6042 19.4133 25.6655C19.4659 25.7266 19.5711 25.8492 19.7486 25.9441C19.9261 26.039 20.1758 26.1063 20.4059 26.1552C20.6361 26.2043 20.8464 26.2349 21.1274 26.238C21.4084 26.2411 21.7601 26.2165 22.0246 26.1875C22.2892 26.1584 22.4667 26.1246 22.6212 26.0696C22.7756 26.0145 22.9071 25.9379 23.0025 25.8446C23.0978 25.7512 23.1569 25.6409 23.1734 25.554C23.1898 25.4671 23.1636 25.4035 23.1373 25.3398" stroke="white" stroke-width="0.3501"/>
<path d="M23.2359 26.1719C23.1307 26.2923 23.0255 26.4127 22.7791 26.5081C22.5325 26.6035 22.1447 26.6739 21.7979 26.7121C21.4512 26.7504 21.1454 26.7566 20.9417 26.7504C20.738 26.7443 20.6361 26.726 21.2013 27.1607C21.7667 27.5954 22.9993 28.4832 27.8966 31.8204C32.7941 35.1573 41.3561 40.9436 45.7161 43.8751C50.0761 46.8065 50.2339 46.883 50.4524 46.9458C50.671 47.0085 50.9505 47.0575 51.2659 47.0713C51.5815 47.0851 51.9331 47.0636 52.2701 47.0161C52.607 46.9687 52.929 46.8952 53.1608 46.8019C53.3925 46.7084 53.5339 46.5952 53.6013 46.5003C53.6686 46.4054 53.662 46.3288 53.61 46.2329C53.558 46.137 53.4605 46.0217 53.3631 45.9064" stroke="white" stroke-width="0.3501"/>
<path d="M49.0542 48.207C49.0266 48.3118 48.9988 48.4165 49.0146 48.5315C49.0302 48.6466 49.0894 48.7721 49.2325 48.9023C49.3753 49.0323 49.6023 49.1671 49.875 49.2819C50.1478 49.3967 50.4666 49.4916 50.8084 49.5575C51.1502 49.6233 51.515 49.66 51.8044 49.6647C52.0936 49.6692 52.3073 49.6416 52.4814 49.585C52.6555 49.5284 52.7904 49.4427 52.9039 49.3523C53.0173 49.262 53.1092 49.1671 53.1651 49.1013C53.221 49.0355 53.2408 48.9987 53.2466 48.9569C53.2525 48.915 53.2445 48.8679 53.2365 48.821" stroke="white" stroke-width="0.3501"/>
<path d="M50.1583 49.3872C50.18 49.2848 50.2016 49.1825 50.2125 49.1314C50.2233 49.0801 50.2233 49.0801 50.3844 49.1107C50.5454 49.1414 50.8674 49.2026 51.0746 49.2393C51.2816 49.2761 51.3737 49.2883 51.4805 49.2975C51.5873 49.3067 51.7089 49.3128 51.7944 49.3158C51.88 49.3189 51.9293 49.3189 51.9572 49.3297C51.9851 49.3404 51.9916 49.3618 51.9949 49.3908C51.9982 49.4199 51.9982 49.4567 52.0019 49.5029C52.0055 49.549 52.0127 49.6046 52.016 49.6324C52.0194 49.6603 52.0181 49.6603 52.0181 49.6603" stroke="white" stroke-width="0.3501"/>
<path d="M9.17554 19.7794C9.28583 19.7337 9.3958 19.6905 9.50552 19.6521M9.8552 19.5438C9.98018 19.5094 10.1043 19.4795 10.2263 19.4514M10.5305 19.3842C10.6509 19.3589 10.7714 19.3352 10.8941 19.3128M11.2056 19.2596C11.3459 19.237 11.4868 19.2158 11.6248 19.1957C11.8574 19.1617 12.0816 19.131 12.3344 19.1126C12.5872 19.0944 12.8687 19.0886 13.2043 19.0848C13.5399 19.0809 13.9296 19.0788 14.4804 19.0955C15.0313 19.1124 15.7434 19.1481 16.0993 19.1661C16.4554 19.1839 16.4554 19.1839 16.4554 19.1839" stroke="white" stroke-width="0.3501"/>
<path d="M9.74548 21.6772C9.82336 21.6523 9.90559 21.6261 9.99406 21.5983C10.117 21.5595 10.252 21.5174 10.4042 21.4748M10.8527 21.3616C10.8874 21.3538 10.9232 21.346 10.9594 21.3384M11.4207 21.253C11.4514 21.248 11.4824 21.2431 11.5134 21.2383M11.9776 21.1745C12.0167 21.1698 12.056 21.1652 12.0952 21.1609M12.5545 21.1189C13.0261 21.086 13.4271 21.0916 13.8453 21.0883C14.2713 21.0851 14.7155 21.0725 15.0765 21.0811C15.4374 21.0898 15.7152 21.1196 15.9665 21.1277C16.2176 21.1359 16.442 21.1221 16.6666 21.1085" stroke="white" stroke-width="0.3501"/>
<path d="M17.8334 7.41406C17.8324 7.42431 17.8313 7.43462 17.8301 7.44471" stroke="white" stroke-width="0.3501"/>
<path d="M17.8301 7.44531C18.0441 7.54033 18.2579 7.63542 18.5531 7.73441C18.8481 7.83347 19.2242 7.93651 19.6335 8.01211C20.0429 8.08771 20.4855 8.13571 20.9575 8.17355C21.4295 8.21131 21.931 8.23875 22.381 8.23195C22.8309 8.22507 23.2291 8.18387 23.6275 8.12883C23.6713 8.12287 23.7151 8.11653 23.7587 8.11026" stroke="white" stroke-width="0.3501"/>
<path d="M33.2375 3.58162C32.977 3.31042 32.7162 3.03921 32.3593 2.78054C32.0022 2.52195 31.5488 2.27604 31.0103 2.04313C30.4717 1.81007 29.848 1.59015 28.9688 1.41434C28.0896 1.23861 26.9548 1.10706 25.9587 1.04315C24.9625 0.979248 24.1048 0.982841 23.2943 1.0774C22.4839 1.17188 21.721 1.35724 21.0521 1.59298C20.3831 1.82872 19.8081 2.11491 19.3153 2.46668C18.8226 2.81853 18.4121 3.2362 18.052 3.66059C17.6919 4.08513 17.3824 4.51648 17.1986 4.90464C17.0147 5.2928 16.9566 5.63777 16.9682 5.93236C16.9796 6.22704 17.0608 6.47141 17.2259 6.73436C17.3834 6.98531 17.6176 7.25308 17.9252 7.48752M23.758 8.11004C23.8796 8.07328 23.9958 8.03422 24.107 7.9934C24.5017 7.84862 24.8352 7.68084 25.1198 7.46413C25.4044 7.24735 25.6401 6.9818 25.7837 6.76051C25.9274 6.53921 25.9791 6.36211 26.0271 5.99061C26.0748 5.61904 26.1186 5.05285 26.1624 4.48667" stroke="white" stroke-width="0.3501"/>
<path d="M20.6183 6.10308C21.0036 5.75826 21.389 5.41337 21.9916 5.13872C22.5943 4.864 23.4145 4.65953 24.2476 4.56046C25.0807 4.46147 25.9267 4.46797 26.7758 4.5428C27.625 4.61771 28.4771 4.76111 29.1386 4.87722C29.8001 4.99334 30.2706 5.08216 30.7037 5.11732C31.1368 5.15241 31.5325 5.13376 31.9133 5.05686C32.2943 4.97988 32.6604 4.84459 32.8919 4.68934C33.1234 4.53386 33.2202 4.35836 33.2556 4.17031C33.2908 3.98227 33.2645 3.7817 33.2513 3.68141C33.2381 3.58112 33.2381 3.58112 33.1431 3.70946C33.0479 3.83773 32.8578 4.09426 32.5522 4.26831C32.2468 4.44228 31.8258 4.53371 31.0588 4.52453C30.2918 4.51536 29.1788 4.40552 28.2519 4.29659C27.3252 4.18759 26.5845 4.07935 25.8982 4.02554C25.2118 3.97165 24.58 3.97218 23.9169 4.05046C23.2539 4.12873 22.5596 4.28482 22.0305 4.40422C21.5013 4.52369 21.1372 4.60648 20.7729 4.68918" stroke="white" stroke-width="0.3501"/>
<path d="M25.1533 5.2193C25.2708 5.24422 25.3862 5.32669 25.4646 5.41873C25.5429 5.51053 25.5843 5.61174 25.597 5.7225C25.6097 5.83333 25.594 5.95365 25.5499 6.07565C25.5058 6.1978 25.4335 6.32155 25.3384 6.45249C25.2431 6.58336 25.1251 6.7214 25 6.82246C24.8748 6.92351 24.7427 6.98749 24.6269 6.99162C24.5111 6.99575 24.4117 6.93987 24.33 6.86106C24.2483 6.78217 24.1844 6.68036 24.167 6.54315C24.1496 6.40586 24.1787 6.23342 24.2473 6.05699C24.3159 5.88057 24.4244 5.7001 24.5224 5.56671C24.6204 5.43325 24.7083 5.34672 24.8122 5.28702C24.9159 5.22732 25.0357 5.19445 25.1533 5.2193Z" stroke="white" stroke-width="0.3501"/>
<path d="M21.8264 5.92188C21.8114 6.32081 21.7964 6.71967 21.7875 7.10837C21.7785 7.49691 21.7757 7.87528 21.7727 8.2535" stroke="white" stroke-width="0.3501"/>
<path d="M25.9169 6.50391C25.9458 6.45392 25.9691 6.40378 25.9878 6.35302C26.0597 6.15818 26.0647 5.95279 26.077 5.70054C26.0809 5.61829 26.0858 5.53107 26.092 5.44141" stroke="white" stroke-width="0.3501"/>
<path d="M17.5879 7.16406C17.6523 7.21574 17.7237 7.26489 17.8065 7.31174" stroke="white" stroke-width="0.3501"/>
<path d="M17.5868 7.16406C17.5851 7.17606 17.5833 7.18807 17.5817 7.19999" stroke="white" stroke-width="0.3501"/>
<path d="M23.8545 16.3604C23.8065 16.3749 23.7508 16.4069 23.6904 16.4343C23.5542 16.4961 23.3934 16.5351 23.163 16.5741C22.9326 16.6132 22.6322 16.6522 22.3283 16.6717C22.0245 16.6912 21.7173 16.6912 21.4064 16.675C21.0956 16.6587 20.7813 16.6262 20.4111 16.5709C20.0409 16.5157 19.6149 16.4375 19.3145 16.3693C19.0142 16.3009 18.8397 16.2423 18.7525 16.2131C18.6894 16.1919 18.6719 16.1861 18.6683 16.261" stroke="white" stroke-width="0.3501"/>
<path d="M17.8062 7.3125C17.7917 7.42196 17.7772 7.549 17.7639 7.70502C17.7255 8.15715 17.6975 8.85336 17.6522 9.26973C17.6067 9.68609 17.5439 9.82269 17.46 9.96907C17.3763 10.1155 17.2715 10.2715 17.0899 10.3821C16.9082 10.4928 16.6499 10.5578 15.4697 10.7368C14.2892 10.9156 12.1869 11.2084 11.0029 11.3905C9.8191 11.5727 9.5537 11.6442 9.26385 11.6964C8.974 11.7483 8.65961 11.7808 8.37337 11.8296C8.08696 11.8784 7.82854 11.9435 7.60508 12.0443C7.38154 12.1451 7.19295 12.2818 7.00781 12.5062C6.82276 12.7307 6.64123 13.043 6.52593 13.365C6.41063 13.687 6.3618 14.0188 6.35836 14.2953C6.35483 14.5718 6.39668 14.793 6.56778 15.0174C6.73897 15.2419 7.03933 15.4696 7.39557 15.6843C7.75173 15.899 8.16378 16.1007 8.55834 16.221C8.95299 16.3414 9.33024 16.3804 10.4965 16.3349C11.6629 16.2893 13.6187 16.1592 14.8269 16.0812C16.0352 16.0031 16.4962 15.977 16.8595 15.9608C17.2226 15.9445 17.488 15.938 17.7115 15.951C17.935 15.9641 18.1166 15.9965 18.2691 16.0517C18.4215 16.1069 18.5448 16.1847 18.6682 16.2625" stroke="white" stroke-width="0.3501"/>
<path d="M23.8541 16.3628C23.9997 16.2649 24.1451 16.167 24.2739 16.0561C24.4025 15.9454 24.5141 15.8218 24.6225 15.6396C24.7307 15.4575 24.8355 15.2168 24.9543 15.0444C25.0729 14.872 25.2056 14.7678 25.4815 14.6507C25.7574 14.5336 26.1765 14.4035 26.9761 14.1791C27.776 13.9547 28.9562 13.6359 29.7735 13.4016C30.5906 13.1675 31.0446 13.0178 31.373 12.8812C31.7011 12.7446 31.9038 12.621 32.0992 12.4388C32.2948 12.2566 32.4835 12.0159 32.6091 11.7362C32.7349 11.4565 32.7977 11.1376 32.7873 10.8515C32.7768 10.5652 32.6929 10.3115 32.5219 10.0871C32.3507 9.86256 32.0923 9.66741 31.8583 9.48205C31.6243 9.29653 31.4149 9.12095 31.2332 8.97457C31.0516 8.82811 30.898 8.71108 30.7129 8.62333C30.5278 8.53542 30.3112 8.47687 30.0947 8.4638C29.8782 8.4508 29.6617 8.48337 29.4731 8.53542C29.2846 8.58748 29.124 8.65902 28.9668 8.72736C28.8097 8.79562 28.6559 8.86067 28.5791 8.89323C28.5023 8.92572 28.5023 8.92572 28.5023 8.92572" stroke="white" stroke-width="0.3501"/>
<path d="M31.4066 9.112C31.4163 8.84714 31.4261 8.58213 31.3613 8.22523C31.2962 7.86826 31.1565 7.41948 30.9785 7.07138C30.8002 6.72327 30.5838 6.47615 30.3534 6.25493C30.1228 6.03372 29.8785 5.83857 29.6409 5.6759C29.4035 5.51324 29.1729 5.38322 28.8376 5.27582C28.5025 5.1685 28.0624 5.08396 27.7238 5.06118C27.3848 5.0384 27.1474 5.07746 26.8959 5.14893C26.6445 5.22055 26.3791 5.32459 26.1453 5.41891C26.1247 5.42717 26.1045 5.43543 26.0846 5.44345M25.2185 7.38402C25.2292 7.50364 25.239 7.62518 25.2476 7.74152C25.2685 8.0245 25.2825 8.27813 25.2896 8.51891C25.2966 8.75962 25.2965 8.98725 25.2965 9.12721C25.2965 9.2671 25.2966 9.31908 25.3105 9.47524C25.3244 9.63133 25.3524 9.89161 25.3733 10.0998C25.3944 10.308 25.4083 10.4641 25.4152 10.5421C25.4223 10.6202 25.4223 10.6202 25.4223 10.6202" stroke="white" stroke-width="0.3501"/>
<path d="M26.0671 5.88973C26.2488 5.80511 26.4515 5.72959 26.6619 5.66798C27.0286 5.56066 27.4198 5.49554 27.79 5.49233C28.1601 5.48896 28.5093 5.54759 28.8097 5.62243C29.11 5.69718 29.3615 5.7883 29.6199 5.95425C29.8783 6.12004 30.1437 6.36075 30.3602 6.62103C30.5768 6.88123 30.7443 7.16099 30.903 7.4319C31.0617 7.7028 31.2114 7.96491 31.2917 8.133C31.372 8.30124 31.3829 8.37531 31.3938 8.44953" stroke="white" stroke-width="0.3501"/>
<path d="M30.412 8.51354C30.0058 8.33834 29.5995 8.16307 29.3371 8.08525C29.0747 8.00736 28.9559 8.02693 28.75 8.09847C28.5439 8.17002 28.2505 8.29355 28.013 8.40752C27.7756 8.52134 27.5939 8.62537 27.4822 8.71328C27.3705 8.80103 27.3285 8.87258 27.2936 8.9312C27.2587 8.98968 27.2308 9.03524 27.2029 9.0808" stroke="white" stroke-width="0.3501"/>
<path d="M25.2968 9.12817C26.2677 9.05334 27.2384 8.97851 27.7728 8.94434C28.307 8.91017 28.4048 8.91667 28.5027 8.92316" stroke="white" stroke-width="0.3501"/>
<path d="M25.7571 10.3115C26.2739 10.2529 26.7909 10.1943 27.5243 10.1163C28.2575 10.0382 29.2075 9.94064 29.9233 9.86252C30.6392 9.78448 31.1212 9.72593 31.418 9.70636C31.7149 9.68687 31.8267 9.70636 31.9797 9.77637C32.1327 9.84632 32.3273 9.96663 32.5217 10.087" stroke="white" stroke-width="0.3501"/>
<path d="M17.4393 11.4219C15.8607 11.6627 14.2822 11.9034 12.9063 12.131C11.5303 12.3587 10.357 12.5734 9.66203 12.7817C8.96703 12.9898 8.75054 13.1914 8.60742 13.5167C8.46413 13.842 8.3943 14.2909 8.46069 14.691C8.52699 15.0911 8.72953 15.4424 8.93215 15.7937" stroke="white" stroke-width="0.3501"/>
<path d="M18.78 11.2266C19.1432 11.7275 19.5065 12.2285 19.7265 12.6904C19.9464 13.1522 20.0233 13.5752 20.0302 13.972C20.0373 14.3688 19.9743 14.7396 19.8661 15.0455C19.7578 15.3512 19.6042 15.5919 19.4506 15.8326" stroke="white" stroke-width="0.3501"/>
<path d="M24.9612 10.582C24.8844 11.6815 24.8076 12.781 24.7272 13.5747C24.6469 14.3684 24.5631 14.8563 24.5192 15.186C24.4752 15.5157 24.471 15.6873 24.4669 15.8589" stroke="white" stroke-width="0.3501"/>
<path d="M8.85397 16.2929C8.63551 16.4713 8.41698 16.6496 8.09134 16.8136C7.76555 16.9777 7.33249 17.1273 6.89255 17.2249C6.45243 17.3225 6.00543 17.368 5.5201 17.3388C5.0346 17.3095 4.51078 17.2053 4.03588 17.033C3.56089 16.8605 3.13489 16.6199 2.77865 16.3596C2.42241 16.0994 2.136 15.8196 1.88111 15.4553C1.6263 15.091 1.40275 14.6421 1.24896 14.216C1.09542 13.7899 1.01155 13.3865 1.00113 12.9701C0.990707 12.5538 1.05341 12.1244 1.14778 11.6951C1.24207 11.2656 1.36771 10.8363 1.52142 10.4817C1.67504 10.1272 1.85665 9.84741 2.06625 9.58071C2.27576 9.31394 2.51325 9.06031 2.74369 8.84559C2.97429 8.6308 3.19767 8.45514 3.45264 8.30234C3.70754 8.14938 3.99386 8.01936 4.30127 7.88598C4.60852 7.75259 4.93678 7.61592 5.24764 7.52816C5.5585 7.44026 5.8518 7.40127 6.20099 7.37857C6.55025 7.35571 6.95524 7.34922 7.343 7.38178C7.73067 7.41427 8.10078 7.48582 8.46753 7.61591C8.83411 7.74601 9.19733 7.93474 9.54651 8.20801C9.89586 8.48121 10.231 8.83902 10.472 9.14157C10.7129 9.44411 10.8597 9.69124 10.9715 9.92874C11.0831 10.1662 11.1599 10.3939 11.2228 10.589C11.2857 10.7842 11.3345 10.9468 11.3598 11.0651C11.3851 11.1833 11.3865 11.2571 11.388 11.3309" stroke="white" stroke-width="0.3501"/>
<path d="M5.24412 17.0842C4.6924 16.8565 4.14068 16.6289 3.67267 16.3686C3.20482 16.1084 2.82059 15.8157 2.5099 15.4416C2.19904 15.0675 1.96154 14.612 1.79388 14.1111C1.62639 13.6102 1.52849 13.0637 1.56345 12.4588C1.59841 11.8537 1.7659 11.1902 1.94053 10.699C2.11525 10.2078 2.29678 9.88894 2.63898 9.53441C2.98119 9.17989 3.48417 8.78951 4.02202 8.49025C4.55971 8.19099 5.1326 7.98285 5.68079 7.87553C6.22906 7.76813 6.75288 7.76163 7.2209 7.8104C7.68883 7.85925 8.10087 7.96328 8.46056 8.13244C8.82025 8.3016 9.12767 8.53581 9.41744 8.80579C9.70729 9.07578 9.97974 9.38153 10.1893 9.6743C10.3988 9.96706 10.5454 10.2468 10.6467 10.468C10.748 10.6893 10.8038 10.8518 10.8366 10.9991C10.8693 11.1462 10.8789 11.2778 10.8886 11.4095" stroke="white" stroke-width="0.3501"/>
<path d="M9.66554 11.5394C9.45594 11.3897 9.24651 11.2401 9.0439 11.1295C8.84136 11.019 8.6458 10.9474 8.4678 10.9019C8.28956 10.8563 8.12896 10.8368 7.96491 10.8303C7.8007 10.8238 7.63312 10.8303 7.42 10.8742C7.20696 10.9181 6.94862 10.9994 6.71638 11.084C6.48414 11.1686 6.27799 11.2564 6.09819 11.3686C5.91839 11.4809 5.76468 11.6174 5.61114 11.8419C5.45743 12.0664 5.3038 12.3786 5.20081 12.6324C5.09774 12.8861 5.0453 13.0813 5.00862 13.2374C4.97193 13.3935 4.95109 13.5106 4.95446 13.6147C4.95798 13.7188 4.98605 13.8099 5.02265 13.9286C5.05933 14.0473 5.10463 14.1938 5.2288 14.3824C5.35263 14.5711 5.55525 14.802 5.75434 14.9972C5.95334 15.1924 6.14882 15.3518 6.31648 15.4835C6.48414 15.6153 6.62381 15.7193 6.8037 15.8023C6.98358 15.8853 7.20352 15.9471 7.3555 15.9813C7.50732 16.0154 7.59119 16.0219 7.68056 16.0181C7.76976 16.0142 7.86446 15.9999 7.95917 15.9857" stroke="white" stroke-width="0.3501"/>
<path d="M7.35574 15.9795C6.98382 15.6601 6.61182 15.3408 6.36481 15.0852C6.11771 14.8296 5.99552 14.6377 5.9169 14.4816C5.83836 14.3254 5.8034 14.205 5.93257 13.7805C6.06182 13.3561 6.35521 12.6274 6.53854 12.2419C6.72187 11.8565 6.79515 11.8141 7.16362 11.7198C7.53209 11.6256 8.19558 11.4791 8.557 11.4043C8.91849 11.3295 8.97782 11.3262 9.03896 11.336C9.10002 11.3457 9.16296 11.3686 9.26768 11.4043C9.37247 11.4401 9.51912 11.4889 9.66577 11.5377" stroke="white" stroke-width="0.3501"/>
<path d="M5.98865 11.4414C6.23977 11.5582 6.49113 11.6751 6.74225 11.7919" stroke="white" stroke-width="0.3501"/>
<path d="M5.85238 14.3059C5.57558 14.1805 5.29869 14.0551 5.02197 13.9297" stroke="white" stroke-width="0.3501"/>
</svg>
