<svg width="54" height="51" viewBox="0 0 54 51" fill="none" xmlns="http://www.w3.org/2000/svg">
<path d="M27.3619 26.0391C27.3096 26.0594 27.2499 26.1009 27.1847 26.1376C27.0376 26.2199 26.8616 26.2768 26.6082 26.3385C26.3546 26.4002 26.0231 26.4666 25.6864 26.51C25.3499 26.5534 25.008 26.5741 24.661 26.5756C24.3139 26.5772 23.9621 26.5597 23.546 26.5191C23.1301 26.4784 22.6506 26.4145 22.3113 26.3537C21.9722 26.2929 21.7738 26.2352 21.6746 26.2064C21.603 26.1856 21.5831 26.1798 21.5844 26.2689" stroke="white" stroke-width="0.3501"/>
<path d="M27.3244 26.1346C27.1773 26.2169 27.0013 26.2738 26.7477 26.3355C26.4941 26.3973 26.1628 26.4636 25.8262 26.507C25.4895 26.5505 25.1476 26.5711 24.8006 26.5727C24.4536 26.5742 24.1015 26.5568 23.6855 26.5161C23.2697 26.4755 22.7901 26.4115 22.4509 26.3508C22.1118 26.2899 21.9133 26.2322 21.8141 26.2034C21.7149 26.1746 21.7149 26.1746 21.7336 26.4171C21.7523 26.6596 21.7897 27.1445 21.8662 27.5034C21.9429 27.8623 22.0587 28.0951 22.2722 28.2717C22.486 28.4482 22.7973 28.5687 23.1416 28.6485C23.4857 28.7283 23.8625 28.7675 24.2339 28.7839C24.6055 28.8002 24.9717 28.7936 25.3282 28.7566C25.6847 28.7197 26.0316 28.6524 26.3569 28.5515C26.6822 28.4507 26.9859 28.3165 27.189 28.1921C27.392 28.0678 27.4941 27.9534 27.5774 27.7821C27.6603 27.6108 27.7244 27.3827 27.7429 27.049C27.7614 26.7153 27.7345 26.2762 27.662 26.1104C27.5894 25.9446 27.4714 26.0523 27.3244 26.1346Z" stroke="white" stroke-width="0.3501"/>
<path d="M22.4512 26.3516C22.6619 26.6056 22.8723 26.8598 22.997 27.1094C23.1214 27.359 23.1599 27.6042 23.1264 27.8484C23.0929 28.0926 22.9877 28.3358 22.8825 28.5789" stroke="white" stroke-width="0.3501"/>
<path d="M23.9185 26.5352C23.7566 26.8516 23.5948 27.1681 23.527 27.4145C23.4592 27.6608 23.4856 27.837 23.5624 28.0064C23.639 28.1758 23.766 28.3383 23.8861 28.4664C24.0066 28.5945 24.1203 28.6882 24.2337 28.7819" stroke="white" stroke-width="0.3501"/>
<path d="M25.5939 26.5312C25.6944 26.7531 25.7953 26.9749 25.8367 27.1947C25.8781 27.4144 25.8603 27.6319 25.8219 27.8315C25.7833 28.0311 25.7242 28.2124 25.6677 28.3598C25.6115 28.5071 25.5578 28.6205 25.5043 28.7337" stroke="white" stroke-width="0.3501"/>
<path d="M26.2895 26.4336C26.2577 26.6518 26.2254 26.87 26.2433 27.0854C26.261 27.3008 26.3286 27.5132 26.4015 27.6828C26.4743 27.8525 26.5523 27.9792 26.6404 28.0804C26.7286 28.1815 26.827 28.2572 26.9254 28.3327" stroke="white" stroke-width="0.3501"/>
<path d="M27.3242 26.1328C27.4574 26.2182 27.5907 26.3037 27.6615 26.4125C27.7321 26.5213 27.7402 26.6533 27.7481 26.7853" stroke="white" stroke-width="0.3501"/>
<path d="M22.4774 28.5069C22.4896 28.5797 22.5019 28.6524 22.5442 28.7059C22.5865 28.7595 22.6587 28.7938 22.798 28.8376C22.9372 28.8814 23.1431 28.9346 23.3681 28.9792C23.5931 29.0237 23.8373 29.0592 24.0455 29.0833C24.2535 29.1076 24.4259 29.1205 24.6523 29.1223C24.8786 29.1241 25.1586 29.115 25.407 29.0942C25.6554 29.0735 25.8717 29.041 26.0777 28.9958C26.2836 28.9505 26.4789 28.8924 26.6388 28.8287C26.7986 28.7649 26.9231 28.6955 26.9962 28.6466C27.0693 28.5977 27.0909 28.5694 27.0978 28.5067C27.1045 28.444 27.0967 28.347 27.0885 28.25" stroke="white" stroke-width="0.3501"/>
<path d="M22.5442 28.7037C22.5498 29.096 22.5556 29.4881 22.5785 29.8183C22.6015 30.1485 22.6413 30.4168 22.7198 30.617C22.7984 30.8172 22.9158 30.9493 23.4811 31.331C24.0465 31.7126 25.0601 32.3438 27.1664 33.7153C29.2723 35.0869 32.4709 37.1989 34.9794 38.8673C37.4877 40.5356 39.306 41.7602 41.1907 42.9865C43.0754 44.2129 45.0263 45.441 46.0445 46.0816C47.0625 46.7221 47.1477 46.775 47.1765 46.8313C47.2052 46.8875 47.1777 46.9472 47.1549 47.0491C47.1316 47.151 47.1132 47.2954 47.113 47.419C47.1129 47.5428 47.1309 47.6461 47.1682 47.7464C47.2056 47.8465 47.2623 47.9436 47.3852 48.0735C47.5082 48.2034 47.6976 48.3661 48.0279 48.5395C48.3584 48.7129 48.8299 48.8972 49.1918 49.0126C49.5538 49.128 49.8062 49.1748 50.0575 49.2042C50.3091 49.2334 50.5593 49.2454 50.8195 49.2279C51.0797 49.2103 51.3499 49.1631 51.5704 49.1034C51.7909 49.0437 51.9621 48.9715 52.1186 48.8828C52.2749 48.7941 52.4166 48.6889 52.5274 48.5875C52.6382 48.4861 52.7179 48.3885 52.8007 48.0181C52.8832 47.6476 52.9686 47.0045 53.0135 46.6228C53.0583 46.2412 53.0627 46.1211 53.0271 46.0169C52.9915 45.9127 52.9157 45.8245 52.6848 45.6489C52.4537 45.4733 52.0671 45.2105 50.7791 44.3987C49.4911 43.5868 47.302 42.226 45.3068 40.9773C43.3116 39.7286 41.5103 38.592 39.1566 37.0922C36.8028 35.5924 33.8963 33.7296 31.791 32.3696C29.6856 31.0095 28.3813 30.1523 27.719 29.7185C27.0568 29.2847 27.0366 29.2743 27.0185 29.2329C27.0003 29.1914 26.9843 29.1189 26.9807 29.0157C26.9773 28.9124 26.9868 28.7784 26.9961 28.6445" stroke="white" stroke-width="0.3501"/>
<path d="M53.0274 46.0184C53.0274 46.0184 53.0274 46.0184 52.928 46.0994C52.8287 46.1804 52.6299 46.3425 52.3319 46.4896C52.0336 46.6367 51.6363 46.7689 51.2431 46.8467C50.8501 46.9245 50.4616 46.948 50.0616 46.9102C49.6615 46.8723 49.2498 46.7735 48.8728 46.6028C48.4956 46.4322 48.1532 46.1899 45.2986 44.2814C42.4442 42.3729 37.0773 38.7983 33.0346 36.1145C28.9918 33.4308 26.2728 31.638 24.9756 30.7687C23.6782 29.8995 23.8026 29.9539 23.9766 29.9937C24.1506 30.0334 24.3745 30.0587 24.6112 30.0716C24.8479 30.0843 25.0976 30.0847 25.397 30.0397C25.6963 29.9946 26.0458 29.9039 26.2988 29.7997C26.5518 29.6955 26.7084 29.5779 26.8122 29.4814C26.9163 29.3849 26.9674 29.3096 27.0188 29.2344" stroke="white" stroke-width="0.3501"/>
<path d="M47.5281 48.2109C47.5016 48.393 47.475 48.575 47.4674 48.6712C47.4594 48.7673 47.4704 48.7774 47.5307 48.8274C47.5911 48.8774 47.701 48.9673 47.8921 49.084C48.083 49.2005 48.3552 49.3437 48.6416 49.4722C48.9279 49.6006 49.2282 49.7144 49.5229 49.7937C49.8173 49.8731 50.106 49.9181 50.4334 49.9192C50.7608 49.9203 51.127 49.8775 51.4018 49.8193C51.6768 49.761 51.8603 49.6876 51.9842 49.6212C52.1081 49.5548 52.172 49.4954 52.2294 49.4469C52.2865 49.3983 52.3369 49.3606 52.3619 49.2393C52.3869 49.1178 52.3864 48.9129 52.386 48.7079" stroke="white" stroke-width="0.3501"/>
<path fill-rule="evenodd" clip-rule="evenodd" d="M19.9661 30.8187L18.9502 30.7148L19.4056 31.6214L19.9661 30.8187Z" stroke="white" stroke-width="0.3501"/>
<path d="M36.3527 5.37287C36.4933 5.14056 36.4652 4.85247 36.3901 4.62489C36.3153 4.39722 36.1935 4.23006 35.9638 4.03488C35.7343 3.83978 35.3969 3.61675 34.8676 3.38453C34.338 3.15222 33.6167 2.91063 32.8388 2.74802C32.061 2.5855 31.2272 2.50188 30.5571 2.43682C29.8871 2.37176 29.3812 2.32535 28.819 2.20923C28.2566 2.09304 27.6382 1.90722 26.9308 1.70285C26.2234 1.49838 25.427 1.27544 24.682 1.14077C23.9371 1.00592 23.2436 0.959595 22.5267 1.03858C21.8099 1.11748 21.0698 1.32185 20.4089 1.57745C19.7484 1.83297 19.1676 2.13945 18.849 2.34855C18.5304 2.55757 18.4741 2.66904 18.4412 3.30091C18.4085 3.93269 18.399 5.08478 18.4507 5.7677C18.5022 6.45062 18.6147 6.66427 18.8113 6.89194C19.008 7.11961 19.2893 7.36112 19.7719 7.56549C20.2545 7.76996 20.9384 7.93721 21.6646 8.04868C22.3909 8.16015 23.1592 8.21592 23.8901 8.22521C24.621 8.23449 25.3146 8.19736 25.9751 8.09509C26.6357 7.9929 27.2634 7.82573 27.7038 7.6492C28.1442 7.47267 28.3972 7.28677 28.5752 7.00806C28.7533 6.72942 28.8565 6.35771 28.9219 6.0465C28.9875 5.73512 29.0157 5.48434 29.0393 5.36358C29.0626 5.24275 29.0814 5.25203 29.2406 5.31709C29.3999 5.38206 29.6999 5.5029 30.1825 5.64686C30.665 5.7909 31.3301 5.95815 32.0706 6.05106C32.8107 6.14396 33.6259 6.16253 34.2256 6.13468C34.8254 6.10684 35.2096 6.03249 35.5564 5.9071C35.903 5.78162 36.2121 5.60518 36.3527 5.37287Z" stroke="white" stroke-width="0.3501"/>
<path d="M26.3614 6.73006C26.4901 6.71141 26.6355 6.66964 26.7761 6.57441C26.9166 6.47918 27.0525 6.3305 27.1368 6.16557C27.2212 6.00064 27.2538 5.81955 27.2491 5.65918C27.2446 5.49889 27.2024 5.35958 27.1064 5.24347C27.0103 5.12735 26.8604 5.03436 26.7082 5.00188C26.5559 4.9693 26.4012 4.99723 26.2629 5.06462C26.1248 5.13191 26.003 5.23883 25.9021 5.39215C25.8014 5.54539 25.7218 5.74521 25.7008 5.92174C25.6796 6.09827 25.717 6.25151 25.778 6.38396C25.839 6.5164 25.9234 6.62787 26.0216 6.68588C26.12 6.74398 26.2324 6.74862 26.3614 6.73006Z" stroke="white" stroke-width="0.3501"/>
<path d="M18.538 2.66797C18.7275 2.83616 18.9171 3.00436 19.3118 3.12562C19.7063 3.24681 20.3061 3.32115 20.8895 3.34899C21.4727 3.37684 22.0396 3.35828 22.6018 3.35596C23.1642 3.35364 23.7216 3.36756 24.3025 3.41638C24.8836 3.46511 25.4879 3.54882 26.0994 3.67662C26.7109 3.80433 27.3293 3.97614 28.004 4.17123C28.6786 4.36641 29.4096 4.5848 30.0911 4.78213C30.7729 4.97954 31.4053 5.15607 32.0917 5.28155C32.778 5.40703 33.5185 5.48138 34.0854 5.49066C34.6524 5.49985 35.0458 5.44416 35.341 5.37214C35.636 5.30012 35.8329 5.21194 35.9985 5.11233C36.1641 5.01263 36.2986 4.90176 36.3659 4.84624C36.4329 4.79081 36.4329 4.79081 36.4329 4.79081" stroke="white" stroke-width="0.3501"/>
<path d="M29.1127 5.26979C28.6917 5.08999 28.2704 4.91011 27.7601 4.71794C27.2495 4.52585 26.6499 4.32139 26.0079 4.15646C25.3661 3.99153 24.6822 3.86614 24.0963 3.81277C23.5108 3.75931 23.0235 3.77787 22.5503 3.83829C22.0772 3.89871 21.618 4.0009 21.2782 4.10309C20.9386 4.20528 20.7183 4.30746 20.566 4.39349C20.4138 4.47935 20.3294 4.54905 20.2452 4.61876" stroke="white" stroke-width="0.3501"/>
<path d="M20.7091 4.7033C21.1446 4.66145 21.5803 4.61968 22.0443 4.49884C22.508 4.37809 23.0001 4.17835 23.3709 4.05339C23.7418 3.92842 23.9915 3.87823 24.2412 3.82812" stroke="white" stroke-width="0.3501"/>
<path d="M20.5822 5.08203C20.5118 5.61162 20.4415 6.14122 20.4268 6.59578C20.4123 7.05034 20.4531 7.42979 20.4938 7.80923" stroke="white" stroke-width="0.3501"/>
<path d="M19.0254 7.11041C19.0105 7.33085 18.9955 7.5513 18.9858 7.66389C18.9757 7.77648 18.9711 7.78103 19.032 7.83913C19.0929 7.89715 19.2195 8.0087 19.4256 8.12722C19.6317 8.24565 19.9175 8.37105 20.332 8.48252C20.7468 8.59407 21.2903 8.69162 21.7915 8.7474C22.2929 8.80309 22.7522 8.81702 23.2862 8.81934C23.8202 8.82166 24.4293 8.81246 24.9706 8.77525C25.5115 8.73803 25.9847 8.67306 26.4276 8.58703C26.8703 8.50108 27.2826 8.39434 27.6199 8.2619C27.9573 8.12954 28.2196 7.97149 28.3556 7.85074C28.4914 7.7299 28.5008 7.64636 28.5048 7.52896C28.5087 7.41164 28.5072 7.26047 28.5059 7.10938" stroke="white" stroke-width="0.3501"/>
<path d="M19.0317 7.83594C18.9632 8.99808 18.8943 10.1602 18.8506 11.1223C18.807 12.0844 18.7881 12.8462 18.7717 13.478C18.7552 14.1097 18.7412 14.6116 18.7154 15.0041C18.6896 15.3966 18.6522 15.68 18.5867 15.9448C18.521 16.2096 18.4273 16.4558 18.3149 16.6346C18.2026 16.8135 18.0712 16.925 17.8933 17.0713C17.7152 17.2177 17.4903 17.3989 17.0992 17.5915C16.7079 17.7844 16.1503 17.9888 15.5764 18.1654C15.0026 18.3419 14.4121 18.4905 13.9414 18.6043C13.4705 18.7182 13.119 18.7972 12.648 18.9295C12.1774 19.062 11.5869 19.2478 11.0693 19.4034C10.5515 19.559 10.1066 19.6845 9.755 19.8006C9.40378 19.9167 9.14591 20.0236 8.92115 20.1537C8.69622 20.2838 8.50415 20.4371 8.34258 20.5811C8.18075 20.7251 8.04969 20.8598 7.91621 21.0317C7.78255 21.2036 7.64664 21.4127 7.53656 21.6101C7.42648 21.8075 7.34205 21.9933 7.27184 22.1885C7.20155 22.3836 7.14555 22.588 7.12423 22.8039C7.10334 23.02 7.1173 23.2477 7.14079 23.4241C7.16402 23.6006 7.19704 23.7261 7.27418 23.9118C7.3515 24.0977 7.47346 24.344 7.69813 24.6041C7.92314 24.8643 8.25105 25.1384 8.61423 25.3776C8.97741 25.6168 9.37561 25.8213 9.86984 25.9653C10.3641 26.1093 10.9544 26.1929 12.1703 26.1603C13.3861 26.1279 15.2273 25.9793 17.5911 25.7609C19.9547 25.5426 22.8407 25.2545 24.3166 25.0919C25.7924 24.9294 25.858 24.8922 25.9894 24.9479C26.1204 25.0037 26.3173 25.1523 26.6427 25.3823C26.9686 25.6123 27.423 25.9235 27.7814 26.1023C28.1398 26.2812 28.4022 26.3277 28.702 26.3137C29.0018 26.2997 29.3392 26.2254 29.6226 26.1232C29.9063 26.021 30.1357 25.891 30.4004 25.6726C30.6652 25.4543 30.965 25.1476 31.1876 24.834C31.4101 24.5205 31.5552 24.2 31.6513 23.8376C31.7473 23.4752 31.7943 23.071 31.7943 22.7575C31.7943 22.4439 31.7473 22.221 31.6537 22.0142C31.5601 21.8075 31.4195 21.617 31.239 21.4428C31.0586 21.2686 30.8385 21.1106 30.637 20.9527C30.4354 20.7948 30.2529 20.6368 30.0959 20.3697C29.9388 20.1025 29.8077 19.7262 29.7258 19.5103C29.6438 19.2942 29.6109 19.2385 29.3087 19.0201C29.0065 18.8018 28.4348 18.4209 28.1374 18.2373C27.84 18.0538 27.8164 18.0679 27.7392 18.0795C27.6618 18.0911 27.5307 18.1003 27.4276 18.1491C27.3246 18.1979 27.2496 18.2862 27.0951 18.4952C26.9405 18.7042 26.7062 19.0341 26.4836 19.2826C26.2609 19.5312 26.0501 19.6984 25.8275 19.8819C25.6052 20.0654 25.3709 20.2652 25.1507 20.5416C24.9304 20.818 24.7244 21.1711 24.593 21.4731C24.4619 21.775 24.4058 22.0259 24.3846 22.2395C24.3636 22.4533 24.3777 22.6297 24.4082 22.8179C24.4384 23.0061 24.4854 23.2058 24.5368 23.3684C24.5884 23.531 24.6445 23.6564 24.722 23.7796C24.7992 23.9027 24.8976 24.0235 25.0171 24.1466C25.1367 24.2696 25.2772 24.395 25.434 24.5228C25.5912 24.6506 25.7643 24.7807 25.9379 24.9107" stroke="white" stroke-width="0.3501"/>
<path d="M27.2739 18.1367C27.898 18.5453 28.522 18.954 28.834 19.1582C29.1461 19.3625 29.1461 19.3625 29.1461 19.4623C29.1461 19.5623 29.1461 19.7621 29.0782 20.0338C29.0102 20.3056 28.8743 20.6493 28.64 20.9699C28.4058 21.2905 28.0731 21.5878 27.8155 21.8502C27.5578 22.1127 27.3751 22.3403 27.2228 22.5935C27.0705 22.8467 26.9487 23.1255 26.8807 23.4855C26.8128 23.8455 26.7987 24.2868 26.8128 24.5772C26.8268 24.8676 26.869 25.0069 26.9431 25.1813C27.0171 25.3556 27.1229 25.5649 27.2288 25.7743" stroke="white" stroke-width="0.3501"/>
<path d="M28.8215 22.9505C28.8989 22.8785 29.016 22.7857 29.1614 22.7275C29.3064 22.6695 29.4799 22.6462 29.6229 22.6927C29.7656 22.7392 29.8781 22.8553 29.9413 23.0202C30.0047 23.1851 30.0187 23.3989 29.9484 23.5986C29.8781 23.7983 29.7235 23.9842 29.5479 24.1026C29.3722 24.2211 29.1754 24.2722 29.016 24.235C28.8568 24.1979 28.735 24.0725 28.6623 23.9353C28.5896 23.7983 28.5663 23.6497 28.5755 23.5127C28.5851 23.3756 28.6273 23.2502 28.6672 23.1619C28.7069 23.0737 28.7443 23.0226 28.8215 22.9505Z" stroke="white" stroke-width="0.3501"/>
<path d="M31.8553 22.5148C32.666 22.1524 33.4764 21.7901 34.2471 21.4207C35.0178 21.0514 35.7488 20.6751 36.2828 20.3407C36.817 20.0062 37.1542 19.7135 37.4143 19.3953C37.6742 19.0771 37.857 18.7333 37.9811 18.4127C38.1053 18.0922 38.1709 17.7949 38.1781 17.5602C38.1849 17.3257 38.1334 17.1538 38 16.9493C37.8663 16.745 37.6508 16.508 37.3394 16.2387C37.0277 15.9691 36.6202 15.6672 36.3181 15.4604C36.0158 15.2537 35.819 15.1423 35.5518 15.0749C35.2849 15.0075 34.9475 14.9843 33.816 15.054C32.6845 15.1237 30.759 15.2862 28.8335 15.4488" stroke="white" stroke-width="0.3501"/>
<path d="M28.693 15.2812C28.8241 15.8387 28.9553 16.3961 29.0723 16.7446C29.1896 17.0931 29.2925 17.2324 29.5268 17.3043C29.761 17.3764 30.1266 17.3811 30.7917 17.2858C31.4571 17.1905 32.4222 16.9955 33.4038 16.8119C34.3855 16.6284 35.3832 16.4565 36.0767 16.4403C36.7702 16.4241 37.1592 16.5634 37.4215 16.7005C37.6838 16.8375 37.8198 16.9722 37.9246 17.1151C38.0298 17.2579 38.104 17.4089 38.1782 17.5598" stroke="white" stroke-width="0.3501"/>
<path d="M28.4703 7.70703C28.5164 8.0301 28.5621 8.35317 28.5992 9.6157C28.6362 10.8783 28.6642 13.0803 28.6924 15.2823" stroke="white" stroke-width="0.3501"/>
<path d="M28.6379 11.3789C28.9 11.1932 29.1619 11.0076 29.5317 10.8288C29.9016 10.6501 30.3795 10.4782 30.7989 10.3713C31.2183 10.2644 31.5788 10.2227 31.893 10.2227C32.2068 10.2227 32.474 10.2644 32.7082 10.3202C32.9425 10.376 33.1438 10.4456 33.4227 10.5688C33.7013 10.6918 34.0575 10.8684 34.3525 11.0659C34.6478 11.2633 34.8821 11.4816 35.0811 11.6976C35.2803 11.9137 35.4442 12.1274 35.5941 12.3898C35.7441 12.6523 35.88 12.9635 35.983 13.2818C36.086 13.6 36.1564 13.9252 36.2126 14.2388C36.2688 14.5523 36.3109 14.8543 36.3263 15.056C36.3414 15.2577 36.3298 15.3592 36.3239 15.4098C36.3181 15.4605 36.3181 15.4605 36.3181 15.4605" stroke="white" stroke-width="0.3501"/>
<path d="M28.6591 12.7739C28.8671 12.5415 29.0749 12.309 29.3474 12.0556C29.62 11.8025 29.9574 11.5284 30.3697 11.3146C30.782 11.101 31.2694 10.9476 31.6981 10.871C32.1267 10.7943 32.4968 10.7943 32.8717 10.8385C33.2463 10.8826 33.6259 10.9708 33.9117 11.0685C34.1976 11.166 34.3897 11.2729 34.5688 11.3793C34.748 11.4857 34.9143 11.5918 35.0271 11.6789C35.1397 11.7659 35.1989 11.8339 35.2581 11.9019" stroke="white" stroke-width="0.3501"/>
<path d="M30.7473 15.2895C30.9103 15.0597 31.0732 14.83 31.2861 14.5896C31.4986 14.3492 31.761 14.0983 32.0024 13.9172C32.2436 13.736 32.4638 13.6245 32.698 13.5618C32.9323 13.499 33.1805 13.4851 33.4501 13.5154C33.7194 13.5455 34.0099 13.6198 34.2442 13.7244C34.4784 13.829 34.6564 13.9636 34.8019 14.0821C34.947 14.2005 35.0595 14.3027 35.1671 14.4165C35.2749 14.5304 35.3781 14.6558 35.508 14.7939C35.638 14.9319 35.7952 15.0825 35.8995 15.1727C36.0035 15.263 36.0548 15.2929 36.1061 15.3227" stroke="white" stroke-width="0.3501"/>
<path d="M35.1675 14.4167C34.9629 14.3525 34.7584 14.2882 34.4922 14.1888C34.2257 14.0893 33.8978 13.9546 33.7246 13.8895C33.5511 13.8245 33.5325 13.8291 33.1741 14.0149C32.8156 14.2007 32.1174 14.5677 31.7685 14.7513C31.4194 14.9347 31.4194 14.9347 31.4034 14.986C31.3874 15.0373 31.3555 15.1398 31.3398 15.1911C31.3237 15.2424 31.3237 15.2424 31.3237 15.2424" stroke="white" stroke-width="0.3501"/>
<path d="M33.5854 15.0673C33.8191 14.9245 34.0528 14.7818 34.26 14.6547C34.4671 14.5275 34.6475 14.4162 34.8281 14.3047" stroke="white" stroke-width="0.3501"/>
<path d="M33.9885 14.8245C34.2235 14.7733 34.459 14.7219 34.6515 14.7055C34.8441 14.6891 34.994 14.7077 35.1295 14.7284C35.2652 14.749 35.3868 14.7718 35.4791 14.8156C35.5718 14.8592 35.6357 14.9238 35.6994 14.9884" stroke="white" stroke-width="0.3501"/>
<path d="M13.1712 18.7917C13.0601 18.3649 12.9491 17.9382 12.7904 17.5621C12.6317 17.1862 12.4257 16.8609 12.2336 16.5985C12.0413 16.3361 11.8633 16.1363 11.6104 15.897C11.3573 15.6578 11.0294 15.3791 10.7156 15.1583C10.4015 14.9377 10.1016 14.7751 9.74086 14.6288C9.3801 14.4825 8.95842 14.3524 8.54141 14.2757C8.12457 14.199 7.71216 14.1758 7.28128 14.2014C6.85015 14.227 6.40046 14.3012 6.00677 14.4057C5.61334 14.5103 5.2759 14.6451 4.94323 14.8076C4.61056 14.9702 4.28265 15.1607 3.98284 15.3675C3.6831 15.5741 3.41111 15.7972 3.16069 16.041C2.90994 16.2849 2.68032 16.5497 2.46242 16.8308C2.24459 17.1119 2.03847 17.4092 1.86737 17.6948C1.69653 17.9806 1.56062 18.2547 1.4365 18.5357C1.31211 18.8168 1.19986 19.1049 1.12003 19.4788C1.04046 19.8527 0.993744 20.3127 1.00068 20.747C1.00779 21.1814 1.06855 21.5902 1.17178 21.9943C1.27467 22.3985 1.42011 22.7981 1.57691 23.1279C1.73389 23.4577 1.90265 23.7179 2.12281 23.9896C2.34306 24.2614 2.61471 24.5447 2.89355 24.791C3.1724 25.0372 3.458 25.2463 3.73927 25.4181C4.02019 25.59 4.2967 25.7248 4.64341 25.8502C4.99021 25.9756 5.40722 26.0917 5.76563 26.1661C6.12404 26.2404 6.42378 26.2729 6.70037 26.2729C6.97678 26.2729 7.22962 26.2404 7.4991 26.1823C7.76841 26.1242 8.05436 26.0407 8.28623 25.9686C8.51809 25.8967 8.69613 25.8362 8.82268 25.7871C8.94932 25.738 9.02455 25.7002 9.06217 25.6813C9.0997 25.6624 9.0997 25.6624 9.09615 25.6604C9.09233 25.6585 9.08497 25.6547 9.07734 25.6508" stroke="white" stroke-width="0.3501"/>
<path d="M3.93973 25.5339C3.66375 25.2845 3.38759 25.035 3.13007 24.7802C2.87238 24.5254 2.6335 24.2652 2.42261 23.9493C2.21163 23.6334 2.02918 23.2618 1.90263 22.8367C1.77608 22.4116 1.70569 21.9331 1.68931 21.4129C1.67293 20.8925 1.71055 20.3304 1.82756 19.7892C1.94484 19.248 2.14142 18.7277 2.35223 18.2887C2.5632 17.8497 2.78804 17.4919 3.11846 17.1133C3.4487 16.7347 3.88435 16.3352 4.29667 16.0263C4.70892 15.7174 5.09784 15.499 5.47966 15.3201C5.86156 15.1414 6.23627 15.002 6.73293 14.9114C7.2296 14.8208 7.84813 14.7789 8.3376 14.7859C8.82725 14.7929 9.188 14.8486 9.57216 14.981C9.95649 15.1134 10.364 15.3225 10.6967 15.5106C11.0294 15.6987 11.2869 15.866 11.5144 16.068C11.7414 16.2702 11.9383 16.507 12.1115 16.758C12.2851 17.0089 12.435 17.2737 12.5795 17.5111C12.7239 17.7488 12.8632 17.9591 12.9549 18.1447C13.0466 18.3304 13.0908 18.4913 13.1352 18.6522" stroke="white" stroke-width="0.3501"/>
<path d="M11.0689 19.4031C10.8995 19.1576 10.7299 18.9122 10.4649 18.7058C10.1997 18.4995 9.8389 18.3323 9.49695 18.2324C9.15509 18.1326 8.83161 18.1 8.51532 18.1255C8.19912 18.1511 7.88994 18.2347 7.56906 18.3648C7.248 18.4949 6.91533 18.6713 6.64611 18.8595C6.37654 19.0477 6.17033 19.2474 6.01353 19.4448C5.85656 19.6423 5.74882 19.8374 5.63388 20.0905C5.51912 20.3437 5.39734 20.6551 5.32254 20.95C5.24739 21.245 5.2193 21.5238 5.24505 21.8722C5.27079 22.2206 5.35071 22.6386 5.49104 22.9824C5.63163 23.3263 5.83324 23.5956 6.02766 23.8024C6.22191 24.0092 6.40939 24.1532 6.5922 24.2507C6.77483 24.3483 6.95295 24.3994 7.13107 24.4505" stroke="white" stroke-width="0.3501"/>
<path d="M8.13084 25.0228C7.96164 25.0001 7.79262 24.9775 7.43403 24.7037C7.07553 24.43 6.52712 23.9049 6.19688 23.5844C5.86655 23.2639 5.75412 23.1477 5.69804 23.0896C5.64188 23.0315 5.64188 23.0315 5.57496 22.8274C5.50831 22.6234 5.37482 22.2152 5.30825 22.0111C5.24134 21.8071 5.24134 21.8071 5.49097 21.3398C5.74034 20.8726 6.23935 19.9382 6.73801 19.0039" stroke="white" stroke-width="0.3501"/>
<path d="M10.921 19.4507C10.5386 19.1812 10.1562 18.9116 9.92048 18.7583C9.6848 18.6049 9.59596 18.5678 9.5514 18.5492C9.50676 18.5306 9.50676 18.5306 9.04546 18.6096C8.5839 18.6886 7.66078 18.8465 7.19948 18.9255C6.73783 19.0045 6.73783 19.0045 6.89949 19.1647C7.06123 19.325 7.38445 19.6456 7.54602 19.8058C7.70776 19.9661 7.70776 19.9661 8.18804 19.8801C8.66815 19.7942 9.62863 19.6224 10.5892 19.4504" stroke="white" stroke-width="0.3501"/>
<path d="M7.71681 19.9297C7.28724 20.8662 6.85792 21.8027 6.42834 22.7393" stroke="white" stroke-width="0.3501"/>
<path d="M7.42599 24.4393C7.42139 24.4347 7.41671 24.4301 7.25038 24.1467C7.08396 23.8632 6.75614 23.3012 6.39487 22.8762C6.03368 22.451 5.63929 22.163 5.245 21.875" stroke="white" stroke-width="0.3501"/>
<path d="M22.564 10.7383C22.4142 13.4142 22.2643 16.09 21.9364 17.623C21.6085 19.1561 21.1023 19.5463 19.4343 19.9829C17.7664 20.4195 14.9365 20.9027 13.0531 21.3116C11.1698 21.7203 10.2327 22.0548 9.62377 22.5008C9.01459 22.9468 8.73341 23.5043 8.61978 24.0024C8.50632 24.5007 8.56006 24.9397 8.66433 25.2046C8.76826 25.4696 8.92289 25.5603 9.07718 25.651" stroke="white" stroke-width="0.3501"/>
<path d="M20.7187 22.2543C21.5067 22.3297 22.1202 22.6517 22.089 22.9735C22.0576 23.2952 21.3933 23.4949 20.6052 23.4194C19.8171 23.344 19.2037 23.0219 19.2349 22.7002C19.2664 22.3784 19.9306 22.1787 20.7187 22.2543Z" stroke="white" stroke-width="0.3501" stroke-dasharray="0.35 0.35 0.35 0.35"/>
<path d="M20.6621 22.5511C21.4501 22.6266 22.0636 22.9486 22.0324 23.2704C22.0008 23.5922 21.3366 23.7918 20.5486 23.7163C19.7603 23.6409 19.1468 23.3188 19.1782 22.9971C19.2097 22.6753 19.874 22.4756 20.6621 22.5511Z" stroke="white" stroke-width="0.3501" stroke-dasharray="0.35 0.35 0.35 0.35"/>
<path d="M20.5622 24.1479C21.3109 24.2197 21.8939 24.5256 21.864 24.8313C21.8343 25.1369 21.2032 25.3266 20.4544 25.2549C19.7057 25.1832 19.1231 24.8773 19.1527 24.5716C19.1824 24.2659 19.8136 24.0763 20.5622 24.1479Z" stroke="white" stroke-width="0.3501" stroke-dasharray="0.35 0.35 0.35 0.35"/>
<path d="M19.2346 22.6992L19.1778 22.9973L19.1516 24.5923" stroke="white" stroke-width="0.3501" stroke-dasharray="0.35 0.35 0.35 0.35"/>
<path d="M22.0889 22.9727L21.9555 23.4331L21.864 24.8335L21.6927 25.8465" stroke="white" stroke-width="0.3501" stroke-dasharray="0.35 0.35 0.35 0.35"/>
<path d="M19.1525 24.5742L19.1626 25.9026" stroke="white" stroke-width="0.3501" stroke-dasharray="0.35 0.35 0.35 0.35"/>
<path d="M20.8693 25.4492C21.3606 25.5689 21.6984 25.7974 21.6763 26.0255C21.6482 26.315 21.0502 26.4947 20.3408 26.4268C19.6316 26.3589 19.0794 26.069 19.1077 25.7795C19.1136 25.7182 19.1451 25.6619 19.1976 25.6118" stroke="white" stroke-width="0.3501"/>
<path d="M19.1433 26.758C19.128 26.8254 19.1209 26.9811 19.1221 27.0728C19.1234 27.1646 19.1326 27.1924 19.1865 27.24C19.2404 27.2876 19.3388 27.355 19.4442 27.4107C19.5497 27.4665 19.6622 27.5107 19.7967 27.5373C19.9315 27.564 20.0885 27.5734 20.2302 27.5699C20.3719 27.5663 20.4983 27.5501 20.6237 27.5223C20.7491 27.4944 20.8733 27.4549 20.994 27.4014C21.1144 27.348 21.2317 27.2807 21.3219 27.2017C21.4121 27.1227 21.4752 27.0321 21.5106 26.9799C21.5455 26.9276 21.5527 26.9137 21.5586 26.8486C21.5644 26.7836 21.5689 26.6675 21.5713 26.6094C21.5737 26.5513 21.5737 26.5513 21.5586 26.5687C21.5432 26.5861 21.5127 26.621 21.4649 26.6698C21.4168 26.7185 21.3511 26.7812 21.2351 26.8474C21.1191 26.9137 20.9529 26.9833 20.8298 27.0275C20.707 27.0716 20.6274 27.0902 20.5265 27.1018C20.4257 27.1134 20.3039 27.1181 20.1856 27.1122C20.0673 27.1065 19.9524 27.0902 19.832 27.0588C19.7112 27.0275 19.5848 26.9811 19.4969 26.9381C19.4091 26.895 19.3599 26.8556 19.3179 26.8219C19.2757 26.7883 19.2404 26.7604 19.2112 26.7359C19.182 26.7115 19.1585 26.6907 19.1433 26.758Z" stroke="white" stroke-width="0.3501"/>
<path d="M19.1093 27.3945C19.0958 27.4621 19.0927 27.6179 19.0961 27.7097C19.0995 27.8013 19.1094 27.8289 19.1645 27.8753C19.2195 27.9216 19.3197 27.9866 19.4264 28.0398C19.5331 28.093 19.6466 28.1344 19.7819 28.1578C19.9172 28.1813 20.0744 28.1868 20.216 28.1798C20.3575 28.1731 20.4837 28.1537 20.6083 28.1228C20.7329 28.0919 20.8559 28.0495 20.9752 27.9932C21.0945 27.9369 21.2099 27.8668 21.2981 27.7855C21.3864 27.7045 21.4474 27.6124 21.4814 27.5592C21.5152 27.5062 21.5218 27.492 21.5261 27.4269C21.5304 27.3617 21.5323 27.2455 21.5332 27.1874C21.5341 27.1293 21.5341 27.1293 21.5192 27.1471C21.5046 27.1649 21.475 27.2004 21.428 27.2504C21.3814 27.3003 21.3172 27.3646 21.2029 27.4335C21.0885 27.5025 20.9241 27.5762 20.8023 27.6233C20.6802 27.6704 20.601 27.6908 20.5007 27.7048C20.4004 27.7189 20.2786 27.7265 20.1602 27.7236C20.0419 27.7206 19.9265 27.7071 19.8051 27.6786C19.6839 27.6503 19.5564 27.6068 19.4673 27.5659C19.3784 27.5251 19.3284 27.4868 19.2853 27.4541C19.2425 27.4216 19.2066 27.3945 19.1766 27.3708C19.147 27.3471 19.1229 27.3268 19.1093 27.3945Z" stroke="white" stroke-width="0.3501"/>
<path d="M19.0763 28.0309C19.0646 28.0989 19.0651 28.2546 19.0708 28.3462C19.0763 28.4378 19.087 28.4652 19.1432 28.5101C19.1995 28.5551 19.301 28.6177 19.409 28.6682C19.5171 28.7189 19.6316 28.7575 19.7674 28.7777C19.9032 28.7979 20.0603 28.7997 20.202 28.7893C20.3432 28.7791 20.4687 28.7568 20.5925 28.7229C20.7165 28.689 20.8384 28.6436 20.9563 28.5844C21.0741 28.5252 21.1879 28.4523 21.2743 28.3691C21.3603 28.2859 21.419 28.1924 21.4517 28.1384C21.4843 28.0846 21.4906 28.0702 21.4931 28.0051C21.4959 27.9398 21.495 27.8236 21.4944 27.7655C21.4939 27.7074 21.4939 27.7074 21.4794 27.7255C21.4651 27.7436 21.4364 27.7799 21.3908 27.8309C21.3453 27.8819 21.2829 27.9478 21.1702 28.0194C21.0576 28.0912 20.895 28.1687 20.7742 28.2188C20.6535 28.2688 20.575 28.2912 20.475 28.3075C20.3747 28.324 20.2534 28.3346 20.1351 28.3344C20.0166 28.3343 19.9009 28.3236 19.7791 28.2981C19.6569 28.2726 19.5283 28.2323 19.4385 28.1936C19.3486 28.1549 19.2975 28.1179 19.2538 28.0861C19.2101 28.0546 19.1736 28.0285 19.1432 28.0054C19.1126 27.9826 19.0884 27.9628 19.0763 28.0309Z" stroke="white" stroke-width="0.3501"/>
<path d="M19.0754 28.667C19.0652 28.7353 19.0696 28.8909 19.0777 28.9824C19.0856 29.0738 19.0967 29.101 19.154 29.1445C19.2112 29.1881 19.3145 29.2482 19.4236 29.2962C19.5328 29.3442 19.6481 29.3801 19.7844 29.3971C19.9208 29.414 20.078 29.4119 20.2191 29.3982C20.3602 29.3845 20.4852 29.3592 20.6081 29.3223C20.7311 29.2854 20.8521 29.2371 20.9684 29.1751C21.0848 29.1131 21.1968 29.0375 21.281 28.9523C21.3651 28.8669 21.4214 28.772 21.4528 28.7174C21.4838 28.6627 21.4898 28.6484 21.491 28.5831C21.4921 28.5177 21.4882 28.4016 21.4863 28.3435C21.4843 28.2854 21.4843 28.2854 21.4703 28.3038C21.4566 28.3223 21.4286 28.3593 21.3844 28.4113C21.3402 28.4635 21.2792 28.5308 21.1686 28.6052C21.0576 28.6796 20.8969 28.7611 20.7774 28.814C20.658 28.8669 20.58 28.8911 20.4804 28.91C20.3809 28.9289 20.2597 28.9422 20.1413 28.9451C20.0227 28.9478 19.9071 28.9398 19.7844 28.9173C19.6618 28.8947 19.5322 28.8575 19.4415 28.821C19.3509 28.7844 19.2989 28.7486 19.2543 28.7181C19.2097 28.6876 19.1728 28.6622 19.1418 28.6401C19.1107 28.6178 19.0857 28.5987 19.0754 28.667Z" stroke="white" stroke-width="0.3501"/>
<path d="M19.0757 29.3067C19.067 29.3752 19.0752 29.5309 19.0854 29.6221C19.0955 29.7133 19.1077 29.7402 19.1659 29.7823C19.2242 29.8246 19.3288 29.8821 19.439 29.9274C19.5495 29.9728 19.6656 30.0059 19.8023 30.0196C19.939 30.0331 20.0961 30.0274 20.2368 30.0103C20.3775 29.9932 20.502 29.9648 20.6238 29.925C20.7461 29.8852 20.8658 29.834 20.9804 29.7692C21.0953 29.7044 21.2053 29.6262 21.2873 29.5389C21.3694 29.4516 21.4235 29.3554 21.4533 29.2999C21.4832 29.2446 21.489 29.23 21.4885 29.1648C21.4878 29.0994 21.4812 28.9833 21.4778 28.9254C21.4745 28.8674 21.4745 28.8674 21.4609 28.8861C21.4475 28.9049 21.4207 28.9426 21.3775 28.9957C21.3346 29.0489 21.2753 29.1176 21.1665 29.1947C21.0574 29.2717 20.8988 29.357 20.7808 29.4128C20.6626 29.4685 20.5851 29.4947 20.486 29.5159C20.3869 29.5372 20.266 29.5535 20.1479 29.5591C20.0297 29.5647 19.9138 29.5596 19.7906 29.5399C19.6673 29.5204 19.5369 29.4863 19.4452 29.452C19.3537 29.4176 19.3008 29.3831 19.2555 29.3535C19.2104 29.3241 19.1727 29.2998 19.1411 29.2783C19.1096 29.2568 19.0842 29.2383 19.0757 29.3067Z" stroke="white" stroke-width="0.3501"/>
<path d="M19.0774 29.9424C19.0706 30.0111 19.0826 30.1665 19.0949 30.2573C19.1074 30.3484 19.1201 30.3749 19.1793 30.4157C19.2386 30.4565 19.3446 30.5115 19.4559 30.5541C19.5673 30.5968 19.6845 30.6273 19.8214 30.6376C19.9583 30.6479 20.1153 30.6383 20.2556 30.6178C20.3958 30.5973 20.5193 30.566 20.6405 30.5232C20.7613 30.4806 20.8798 30.4264 20.9932 30.3589C21.1063 30.2914 21.2144 30.2105 21.2943 30.1212C21.3741 30.032 21.4258 29.9345 21.4544 29.8784C21.4827 29.8224 21.488 29.8076 21.486 29.7424C21.4839 29.677 21.4743 29.5613 21.4695 29.5033C21.4646 29.4454 21.4646 29.4454 21.4519 29.4645C21.4389 29.4837 21.4128 29.5219 21.3711 29.5761C21.3294 29.6303 21.272 29.7004 21.1649 29.78C21.0578 29.8597 20.9012 29.9488 20.7846 30.0074C20.6678 30.0659 20.5911 30.094 20.4927 30.1176C20.3942 30.1412 20.2736 30.1605 20.1556 30.1689C20.0373 30.1774 19.9213 30.175 19.7978 30.1584C19.6744 30.1417 19.543 30.1107 19.4505 30.0787C19.3582 30.0466 19.3044 30.0133 19.2584 29.9849C19.2126 29.9565 19.1743 29.9331 19.1424 29.9124C19.1101 29.8917 19.0843 29.8738 19.0774 29.9424Z" stroke="white" stroke-width="0.3501"/>
<path d="M19.079 30.5817C19.0738 30.6506 19.0897 30.8055 19.1043 30.8961C19.1188 30.9868 19.1321 31.013 19.1926 31.0523C19.2527 31.0916 19.36 31.1442 19.4726 31.1841C19.585 31.2242 19.7024 31.2517 19.8396 31.2586C19.9769 31.2658 20.1336 31.2523 20.2732 31.2285C20.4129 31.2046 20.5357 31.1703 20.6556 31.1247C20.7757 31.0791 20.8927 31.0222 21.0042 30.952C21.1157 30.8818 21.2219 30.7982 21.2995 30.7071C21.3771 30.6159 21.4265 30.5172 21.4537 30.4605C21.4808 30.4036 21.4857 30.3889 21.4818 30.3236C21.4781 30.2586 21.4658 30.1429 21.4596 30.0851C21.4534 30.0274 21.4534 30.0274 21.441 30.0468C21.4285 30.0661 21.4032 30.1051 21.363 30.1602C21.3228 30.2154 21.267 30.2869 21.1618 30.3691C21.0569 30.4513 20.9023 30.5442 20.7874 30.6054C20.6719 30.6669 20.5958 30.6968 20.498 30.7227C20.3999 30.7487 20.2801 30.7709 20.1623 30.7821C20.0443 30.7935 19.9284 30.7938 19.8044 30.7802C19.6806 30.7666 19.5487 30.7387 19.4554 30.7089C19.3621 30.679 19.3075 30.647 19.2611 30.6198C19.2144 30.5925 19.1756 30.57 19.1431 30.55C19.1103 30.5302 19.0842 30.5128 19.079 30.5817Z" stroke="white" stroke-width="0.3501"/>
<path d="M19.1452 31.2206C19.1417 31.2895 19.1613 31.4442 19.1781 31.5344C19.1949 31.6246 19.2088 31.6506 19.2703 31.6884C19.3314 31.7263 19.4399 31.7762 19.5533 31.8134C19.6666 31.8507 19.7849 31.8753 19.9222 31.8791C20.0597 31.8828 20.216 31.8656 20.3551 31.8385C20.494 31.8112 20.616 31.774 20.7348 31.7255C20.8534 31.6772 20.9691 31.6173 21.0789 31.5444C21.1888 31.4716 21.2927 31.3855 21.368 31.2925C21.4435 31.1996 21.4905 31.0997 21.5163 31.0423C21.5419 30.9849 21.5463 30.9699 21.541 30.9049C21.5357 30.8398 21.5207 30.7245 21.5129 30.6669C21.5052 30.6094 21.5052 30.6094 21.4935 30.629C21.4814 30.6487 21.4571 30.6882 21.4183 30.7443C21.3791 30.8005 21.3252 30.8732 21.2223 30.958C21.1192 31.0426 20.9672 31.1392 20.8534 31.2033C20.7398 31.2675 20.6646 31.2992 20.5672 31.3274C20.47 31.3558 20.3508 31.3808 20.2331 31.3949C20.1155 31.4091 19.9997 31.4124 19.8752 31.4016C19.751 31.391 19.6184 31.3664 19.5245 31.3388C19.4308 31.3112 19.3755 31.2805 19.3281 31.2543C19.2809 31.2283 19.2413 31.2066 19.2084 31.1875C19.1753 31.1684 19.1486 31.1518 19.1452 31.2206Z" stroke="white" stroke-width="0.3501"/>
<path d="M19.244 31.8593C19.242 31.9282 19.2655 32.0823 19.2847 32.1721C19.3036 32.2619 19.3181 32.2875 19.3803 32.3239C19.4424 32.3603 19.552 32.4075 19.6665 32.4421C19.7806 32.4765 19.8996 32.4984 20.0369 32.4988C20.1742 32.4992 20.3301 32.4784 20.4686 32.4478C20.6069 32.4172 20.7278 32.3771 20.8454 32.3257C20.9628 32.2744 21.0772 32.2119 21.185 32.1364C21.2931 32.0608 21.3949 31.9724 21.468 31.8777C21.5411 31.7829 21.5855 31.6819 21.6099 31.6238C21.6341 31.5659 21.6384 31.5508 21.6314 31.4859C21.6245 31.421 21.6064 31.3061 21.5976 31.2487C21.5885 31.1913 21.5885 31.1913 21.5769 31.2113C21.5653 31.2313 21.5424 31.2713 21.5046 31.3283C21.467 31.3854 21.4149 31.4596 21.314 31.5467C21.2132 31.6339 21.0634 31.7341 20.9513 31.8008C20.8392 31.8677 20.7648 31.9011 20.6681 31.9318C20.5716 31.9625 20.453 31.9904 20.3357 32.0074C20.2185 32.0243 20.1027 32.0303 19.9783 32.0226C19.8537 32.0149 19.7207 31.9935 19.6262 31.9682C19.5315 31.9428 19.4755 31.9135 19.4277 31.8885C19.3798 31.8636 19.3397 31.843 19.3064 31.8246C19.2728 31.8063 19.2459 31.7903 19.244 31.8593Z" stroke="white" stroke-width="0.3501"/>
<path d="M19.3429 32.4975C19.3429 32.5666 19.3701 32.72 19.3913 32.8094C19.4123 32.8986 19.4278 32.9238 19.4908 32.9586C19.5535 32.9935 19.6645 33.0382 19.7795 33.0699C19.8947 33.1017 20.0141 33.1206 20.1513 33.1178C20.2886 33.1149 20.4439 33.0902 20.5816 33.0564C20.7193 33.0225 20.8391 32.9794 20.9555 32.9253C21.0715 32.8711 21.1841 32.8059 21.2902 32.7278C21.3964 32.6497 21.4959 32.5588 21.5667 32.4623C21.6375 32.3659 21.6796 32.2638 21.7024 32.2052C21.7252 32.1467 21.7291 32.1316 21.7207 32.0668C21.7121 32.0021 21.6913 31.8877 21.6809 31.8304C21.6705 31.7733 21.6705 31.7733 21.6594 31.7936C21.6484 31.8139 21.6263 31.8543 21.5899 31.9123C21.5539 31.9703 21.5035 32.0456 21.4047 32.1351C21.3061 32.2247 21.1588 32.3285 21.0485 32.3979C20.938 32.4675 20.8643 32.5028 20.7685 32.5358C20.6728 32.5688 20.5549 32.5995 20.4381 32.6192C20.3213 32.639 20.2057 32.6478 20.081 32.6431C19.9564 32.6384 19.8229 32.6203 19.7276 32.5972C19.6325 32.5742 19.5758 32.5462 19.5273 32.5223C19.4787 32.4986 19.4384 32.4788 19.4044 32.4614C19.3705 32.4438 19.3431 32.4285 19.3429 32.4975Z" stroke="white" stroke-width="0.3501"/>
<path d="M19.4437 33.1354C19.4451 33.2043 19.4762 33.357 19.4994 33.4459C19.5228 33.5346 19.5387 33.5595 19.6027 33.5928C19.6664 33.6262 19.7783 33.6681 19.8942 33.6971C20.01 33.7261 20.1299 33.7421 20.2672 33.7359C20.4044 33.7298 20.5589 33.7013 20.6955 33.6642C20.8323 33.6271 20.9511 33.5812 21.066 33.5242C21.1809 33.4673 21.292 33.3993 21.3961 33.3187C21.5002 33.2381 21.5975 33.1448 21.6659 33.0467C21.7344 32.9484 21.7737 32.8454 21.7951 32.7863C21.8168 32.7272 21.8202 32.7121 21.81 32.6475C21.7998 32.583 21.7764 32.4691 21.7645 32.4122C21.7527 32.3552 21.7527 32.3552 21.7421 32.3759C21.7315 32.3964 21.7105 32.4375 21.6756 32.4963C21.6409 32.5551 21.5924 32.6316 21.4958 32.7234C21.3994 32.8154 21.2548 32.9226 21.1461 32.9948C21.0374 33.067 20.9646 33.104 20.8697 33.1392C20.7748 33.1746 20.6576 33.2081 20.5413 33.2307C20.4253 33.2533 20.3099 33.2648 20.1852 33.2632C20.0605 33.2614 19.9263 33.2465 19.8307 33.2258C19.7352 33.205 19.6775 33.1783 19.6285 33.1557C19.5795 33.1331 19.5387 33.1144 19.5043 33.0977C19.4698 33.081 19.4423 33.0663 19.4437 33.1354Z" stroke="white" stroke-width="0.3501"/>
<path d="M21.8578 25.3516C21.873 25.8514 21.8884 26.3513 21.9195 26.6336C21.9505 26.9161 21.9973 26.9812 22.1285 27.0624C22.2596 27.1438 22.4753 27.2412 22.7468 27.3109C23.0186 27.3806 23.3467 27.4225 23.6956 27.4387C24.0448 27.455 24.4148 27.4457 24.7966 27.4062C25.1786 27.3667 25.572 27.297 25.8815 27.2273C26.1905 27.1577 26.4154 27.088 26.5677 27.0067C26.72 26.9254 26.7996 26.8325 26.8465 26.7767C26.8933 26.7209 26.9073 26.7024 26.9121 26.5074C26.9166 26.3123 26.9116 25.941 26.9069 25.5695" stroke="white" stroke-width="0.3501"/>
<path d="M24.0889 25.8272C24.0875 25.6815 24.0861 25.5358 24.0853 25.4513C24.0847 25.3668 24.0847 25.3436 24.0262 25.3343C23.9674 25.3249 23.8504 25.3296 23.6139 25.3273C23.3772 25.3249 23.0212 25.3157 22.8173 25.3017C22.6134 25.2878 22.5619 25.2693 22.5365 25.3449C22.5111 25.4205 22.5118 25.5903 22.5122 25.6752C22.5125 25.7601 22.5125 25.7601 22.5125 25.7601" stroke="white" stroke-width="0.3501"/>
<path d="M26.0216 25.6484C25.6654 25.7461 25.3093 25.8436 24.9837 25.9319C24.6581 26.0201 24.363 26.0991 24.0772 26.1828C23.7913 26.2663 23.5149 26.3546 23.2994 26.4406C23.0839 26.5265 22.9293 26.6101 22.8005 26.6983C22.6717 26.7866 22.5685 26.8796 22.4655 26.9724" stroke="white" stroke-width="0.3501"/>
<path d="M19.2007 26.1721C19.1856 26.2394 19.1786 26.3951 19.1797 26.4868C19.1808 26.5786 19.1903 26.6064 19.2442 26.6541C19.298 26.7017 19.3964 26.769 19.5018 26.8247C19.6074 26.8805 19.7196 26.9247 19.8543 26.9513C19.9892 26.9781 20.146 26.9873 20.2878 26.9838C20.4296 26.9805 20.556 26.9641 20.6812 26.9363C20.8065 26.9084 20.9307 26.8689 21.0514 26.8155C21.1721 26.7621 21.2891 26.6947 21.3793 26.6158C21.4695 26.5367 21.5329 26.4462 21.568 26.3939C21.6033 26.3416 21.6101 26.3276 21.616 26.2627C21.6217 26.1976 21.6265 26.0815 21.6289 26.0235C21.6313 25.9654 21.6313 25.9654 21.616 25.9828C21.6008 26.0002 21.5702 26.0351 21.5222 26.0838C21.4742 26.1326 21.4088 26.1953 21.2928 26.2615C21.1769 26.3277 21.0105 26.3974 20.8874 26.4414C20.7645 26.4857 20.6847 26.5042 20.5842 26.5159C20.4834 26.5275 20.3616 26.5321 20.2433 26.5263C20.125 26.5205 20.01 26.5042 19.8895 26.4729C19.769 26.4415 19.6424 26.3951 19.5546 26.352C19.4668 26.3092 19.4174 26.2696 19.3753 26.2359C19.3331 26.2022 19.298 26.1745 19.2689 26.15C19.2394 26.1256 19.216 26.1047 19.2007 26.1721Z" stroke="white" stroke-width="0.3501"/>
</svg>
